STARTFONT 2.1
FONT -FontForge-New Science Medium-Medium-R-Normal--13-120-75-75-P-73-ISO10646-1
SIZE 12 75 75
FONTBOUNDINGBOX 17 18 -2 -3
COMMENT "Generated by fontforge, http://fontforge.sourceforge.net"
COMMENT "Copyright \(c\) 2023 by Newlyn Works Limited. All rights reserved."
STARTPROPERTIES 39
FOUNDRY "FontForge"
FAMILY_NAME "New Science Medium"
WEIGHT_NAME "Medium"
SLANT "R"
SETWIDTH_NAME "Normal"
ADD_STYLE_NAME ""
PIXEL_SIZE 13
POINT_SIZE 120
RESOLUTION_X 75
RESOLUTION_Y 75
SPACING "P"
AVERAGE_WIDTH 73
CHARSET_REGISTRY "ISO10646"
CHARSET_ENCODING "1"
FONTNAME_REGISTRY ""
CHARSET_COLLECTIONS "ISO8859-2 ISO8859-9 ISO8859-4 ISO10646-1"
FONT_NAME "NewScience-Medium"
FACE_NAME "New Science Medium"
COPYRIGHT "Copyright \(c\) 2023 by Newlyn Works Limited. All rights reserved."
FONT_VERSION "002.101"
FONT_ASCENT 10
FONT_DESCENT 3
UNDERLINE_POSITION -2
UNDERLINE_THICKNESS 2
X_HEIGHT 6
CAP_HEIGHT 9
RAW_ASCENT 803
RAW_DESCENT 196
NORM_SPACE 4
RELATIVE_WEIGHT 50
RELATIVE_SETWIDTH 50
SUPERSCRIPT_X 0
SUPERSCRIPT_Y 4
SUPERSCRIPT_SIZE 7
SUBSCRIPT_X 0
SUBSCRIPT_Y 0
SUBSCRIPT_SIZE 7
AVG_LOWERCASE_WIDTH 71
AVG_UPPERCASE_WIDTH 93
ENDPROPERTIES
CHARS 524
STARTCHAR space
ENCODING 32
SWIDTH 272 0
DWIDTH 4 0
BBX 1 1 0 0
BITMAP
00
ENDCHAR
STARTCHAR exclam
ENCODING 33
SWIDTH 245 0
DWIDTH 3 0
BBX 1 10 1 0
BITMAP
80
80
80
80
80
80
80
00
80
80
ENDCHAR
STARTCHAR quotedbl
ENCODING 34
SWIDTH 386 0
DWIDTH 5 0
BBX 3 3 1 7
BITMAP
A0
A0
A0
ENDCHAR
STARTCHAR numbersign
ENCODING 35
SWIDTH 690 0
DWIDTH 9 0
BBX 9 10 0 0
BITMAP
1300
1200
1200
7F80
3200
2600
FF00
2400
2400
6400
ENDCHAR
STARTCHAR dollar
ENCODING 36
SWIDTH 721 0
DWIDTH 9 0
BBX 8 12 1 -1
BITMAP
10
7E
D2
92
90
FE
13
93
93
D3
7E
10
ENDCHAR
STARTCHAR percent
ENCODING 37
SWIDTH 814 0
DWIDTH 11 0
BBX 10 10 0 0
BITMAP
7100
9300
9200
9600
7400
0DC0
0A40
0A40
1240
13C0
ENDCHAR
STARTCHAR ampersand
ENCODING 38
SWIDTH 788 0
DWIDTH 10 0
BBX 9 10 1 0
BITMAP
7C00
C200
C200
C000
6000
BB00
8F00
8700
C380
7E80
ENDCHAR
STARTCHAR quotesingle
ENCODING 39
SWIDTH 214 0
DWIDTH 3 0
BBX 1 3 1 7
BITMAP
80
80
80
ENDCHAR
STARTCHAR parenleft
ENCODING 40
SWIDTH 330 0
DWIDTH 4 0
BBX 3 10 1 0
BITMAP
60
C0
80
80
80
80
80
80
C0
60
ENDCHAR
STARTCHAR parenright
ENCODING 41
SWIDTH 330 0
DWIDTH 4 0
BBX 4 10 0 0
BITMAP
E0
20
20
20
30
30
20
20
20
E0
ENDCHAR
STARTCHAR asterisk
ENCODING 42
SWIDTH 464 0
DWIDTH 6 0
BBX 4 5 1 5
BITMAP
40
D0
60
D0
40
ENDCHAR
STARTCHAR plus
ENCODING 43
SWIDTH 597 0
DWIDTH 8 0
BBX 6 7 1 1
BITMAP
30
30
30
FC
30
30
30
ENDCHAR
STARTCHAR comma
ENCODING 44
SWIDTH 234 0
DWIDTH 3 0
BBX 1 3 1 -1
BITMAP
80
80
80
ENDCHAR
STARTCHAR hyphen
ENCODING 45
SWIDTH 392 0
DWIDTH 5 0
BBX 3 1 1 3
BITMAP
E0
ENDCHAR
STARTCHAR period
ENCODING 46
SWIDTH 225 0
DWIDTH 3 0
BBX 1 2 1 0
BITMAP
80
80
ENDCHAR
STARTCHAR slash
ENCODING 47
SWIDTH 441 0
DWIDTH 6 0
BBX 5 10 0 0
BITMAP
08
08
18
10
30
20
20
40
40
C0
ENDCHAR
STARTCHAR zero
ENCODING 48
SWIDTH 745 0
DWIDTH 10 0
BBX 8 10 1 0
BITMAP
7E
C2
83
81
81
81
81
83
C2
7E
ENDCHAR
STARTCHAR one
ENCODING 49
SWIDTH 435 0
DWIDTH 6 0
BBX 5 10 0 0
BITMAP
38
38
58
98
18
18
18
18
18
18
ENDCHAR
STARTCHAR two
ENCODING 50
SWIDTH 711 0
DWIDTH 9 0
BBX 8 10 1 0
BITMAP
7E
C2
82
02
06
7C
C0
80
80
FF
ENDCHAR
STARTCHAR three
ENCODING 51
SWIDTH 716 0
DWIDTH 9 0
BBX 8 10 1 0
BITMAP
7E
C2
82
02
3C
02
03
83
C2
7E
ENDCHAR
STARTCHAR four
ENCODING 52
SWIDTH 709 0
DWIDTH 9 0
BBX 9 10 0 0
BITMAP
0700
0F00
0B00
1300
3300
6300
C300
FF80
0300
0300
ENDCHAR
STARTCHAR five
ENCODING 53
SWIDTH 710 0
DWIDTH 9 0
BBX 8 10 1 0
BITMAP
FE
80
80
80
FE
02
03
83
C2
7E
ENDCHAR
STARTCHAR six
ENCODING 54
SWIDTH 723 0
DWIDTH 9 0
BBX 8 10 1 0
BITMAP
7E
C2
83
80
BE
C3
83
83
C3
7E
ENDCHAR
STARTCHAR seven
ENCODING 55
SWIDTH 648 0
DWIDTH 8 0
BBX 8 10 0 0
BITMAP
FF
03
02
06
04
0C
08
18
10
30
ENDCHAR
STARTCHAR eight
ENCODING 56
SWIDTH 725 0
DWIDTH 9 0
BBX 8 10 1 0
BITMAP
7E
C2
83
82
7C
C2
83
83
C3
7E
ENDCHAR
STARTCHAR nine
ENCODING 57
SWIDTH 725 0
DWIDTH 9 0
BBX 8 10 1 0
BITMAP
7C
C2
83
83
C3
7F
03
82
C6
7C
ENDCHAR
STARTCHAR colon
ENCODING 58
SWIDTH 226 0
DWIDTH 3 0
BBX 1 7 1 0
BITMAP
80
80
00
00
00
80
80
ENDCHAR
STARTCHAR semicolon
ENCODING 59
SWIDTH 251 0
DWIDTH 3 0
BBX 1 9 1 -2
BITMAP
80
80
00
00
00
80
80
80
80
ENDCHAR
STARTCHAR less
ENCODING 60
SWIDTH 597 0
DWIDTH 8 0
BBX 6 6 1 1
BITMAP
0C
70
C0
E0
38
04
ENDCHAR
STARTCHAR equal
ENCODING 61
SWIDTH 597 0
DWIDTH 8 0
BBX 6 4 1 2
BITMAP
FC
00
00
FC
ENDCHAR
STARTCHAR greater
ENCODING 62
SWIDTH 597 0
DWIDTH 8 0
BBX 6 6 1 1
BITMAP
C0
38
0C
1C
E0
80
ENDCHAR
STARTCHAR question
ENCODING 63
SWIDTH 570 0
DWIDTH 7 0
BBX 7 10 0 0
BITMAP
7C
46
C2
02
0E
18
10
00
10
10
ENDCHAR
STARTCHAR at
ENCODING 64
SWIDTH 938 0
DWIDTH 12 0
BBX 11 11 1 -2
BITMAP
3F00
C0C0
8040
9F40
B160
A120
B140
9FC0
8000
C040
3F80
ENDCHAR
STARTCHAR A
ENCODING 65
SWIDTH 758 0
DWIDTH 10 0
BBX 10 10 0 0
BITMAP
0C00
1C00
1600
1200
3300
2100
6100
7F80
4080
C0C0
ENDCHAR
STARTCHAR B
ENCODING 66
SWIDTH 737 0
DWIDTH 10 0
BBX 8 10 1 0
BITMAP
FE
83
83
83
FC
83
81
81
83
FE
ENDCHAR
STARTCHAR C
ENCODING 67
SWIDTH 758 0
DWIDTH 10 0
BBX 8 10 1 0
BITMAP
7E
C3
81
81
80
80
81
81
C3
7E
ENDCHAR
STARTCHAR D
ENCODING 68
SWIDTH 767 0
DWIDTH 10 0
BBX 8 10 1 0
BITMAP
FE
83
81
81
81
81
81
81
83
FE
ENDCHAR
STARTCHAR E
ENCODING 69
SWIDTH 661 0
DWIDTH 9 0
BBX 7 10 1 0
BITMAP
FE
80
80
80
FE
80
80
80
80
FE
ENDCHAR
STARTCHAR F
ENCODING 70
SWIDTH 633 0
DWIDTH 8 0
BBX 7 10 1 0
BITMAP
FE
80
80
80
80
FE
80
80
80
80
ENDCHAR
STARTCHAR G
ENCODING 71
SWIDTH 782 0
DWIDTH 10 0
BBX 8 10 1 0
BITMAP
7E
C3
81
80
80
8F
81
81
C3
7E
ENDCHAR
STARTCHAR H
ENCODING 72
SWIDTH 782 0
DWIDTH 10 0
BBX 8 10 1 0
BITMAP
81
81
81
81
FF
81
81
81
81
81
ENDCHAR
STARTCHAR I
ENCODING 73
SWIDTH 250 0
DWIDTH 3 0
BBX 1 10 1 0
BITMAP
80
80
80
80
80
80
80
80
80
80
ENDCHAR
STARTCHAR J
ENCODING 74
SWIDTH 643 0
DWIDTH 8 0
BBX 7 10 0 0
BITMAP
02
02
02
02
02
02
C2
C2
42
7C
ENDCHAR
STARTCHAR K
ENCODING 75
SWIDTH 701 0
DWIDTH 9 0
BBX 8 10 1 0
BITMAP
82
84
88
98
F0
90
98
8C
86
83
ENDCHAR
STARTCHAR L
ENCODING 76
SWIDTH 589 0
DWIDTH 8 0
BBX 6 10 1 0
BITMAP
80
80
80
80
80
80
80
80
80
FC
ENDCHAR
STARTCHAR M
ENCODING 77
SWIDTH 1017 0
DWIDTH 13 0
BBX 11 10 1 0
BITMAP
C060
E060
A0A0
B0A0
91A0
9120
9B20
8A20
8E20
8620
ENDCHAR
STARTCHAR N
ENCODING 78
SWIDTH 805 0
DWIDTH 10 0
BBX 9 10 1 0
BITMAP
C180
E180
A180
9180
9980
8980
8D80
8780
8380
8380
ENDCHAR
STARTCHAR O
ENCODING 79
SWIDTH 803 0
DWIDTH 10 0
BBX 9 10 1 0
BITMAP
7E00
C300
8180
8180
8180
8180
8180
8180
C300
7E00
ENDCHAR
STARTCHAR P
ENCODING 80
SWIDTH 721 0
DWIDTH 9 0
BBX 8 10 1 0
BITMAP
FE
83
81
81
83
FE
80
80
80
80
ENDCHAR
STARTCHAR Q
ENCODING 81
SWIDTH 807 0
DWIDTH 11 0
BBX 9 10 1 0
BITMAP
7E00
C300
8180
8180
8180
8980
8D80
8780
C380
7E80
ENDCHAR
STARTCHAR R
ENCODING 82
SWIDTH 744 0
DWIDTH 10 0
BBX 8 10 1 0
BITMAP
FE
83
83
83
82
FE
83
83
83
83
ENDCHAR
STARTCHAR S
ENCODING 83
SWIDTH 719 0
DWIDTH 9 0
BBX 8 10 1 0
BITMAP
7E
C2
82
80
FC
1F
03
83
C3
7E
ENDCHAR
STARTCHAR T
ENCODING 84
SWIDTH 658 0
DWIDTH 9 0
BBX 8 10 0 0
BITMAP
FF
08
08
08
08
08
08
08
08
08
ENDCHAR
STARTCHAR U
ENCODING 85
SWIDTH 781 0
DWIDTH 10 0
BBX 8 10 1 0
BITMAP
81
81
81
81
81
81
81
81
C3
7E
ENDCHAR
STARTCHAR V
ENCODING 86
SWIDTH 737 0
DWIDTH 10 0
BBX 9 10 0 0
BITMAP
C080
4080
4180
6100
2300
3200
1200
1600
1C00
0C00
ENDCHAR
STARTCHAR W
ENCODING 87
SWIDTH 1090 0
DWIDTH 14 0
BBX 14 10 0 0
BITMAP
C30C
430C
4388
6688
6498
2490
24D0
3850
1870
1860
ENDCHAR
STARTCHAR X
ENCODING 88
SWIDTH 721 0
DWIDTH 9 0
BBX 9 10 0 0
BITMAP
4180
6300
3200
1600
0C00
1C00
1600
2200
6100
C180
ENDCHAR
STARTCHAR Y
ENCODING 89
SWIDTH 712 0
DWIDTH 9 0
BBX 9 10 0 0
BITMAP
C180
4100
2300
3200
1600
1C00
0800
0800
0800
0800
ENDCHAR
STARTCHAR Z
ENCODING 90
SWIDTH 671 0
DWIDTH 9 0
BBX 8 10 0 0
BITMAP
7F
03
06
04
0C
18
30
60
40
FF
ENDCHAR
STARTCHAR bracketleft
ENCODING 91
SWIDTH 325 0
DWIDTH 4 0
BBX 3 10 1 0
BITMAP
E0
80
80
80
80
80
80
80
80
E0
ENDCHAR
STARTCHAR backslash
ENCODING 92
SWIDTH 442 0
DWIDTH 6 0
BBX 5 10 0 0
BITMAP
C0
40
40
20
20
30
10
18
08
08
ENDCHAR
STARTCHAR bracketright
ENCODING 93
SWIDTH 325 0
DWIDTH 4 0
BBX 3 10 0 0
BITMAP
E0
20
20
20
20
20
20
20
20
E0
ENDCHAR
STARTCHAR asciicircum
ENCODING 94
SWIDTH 591 0
DWIDTH 8 0
BBX 6 5 1 5
BITMAP
30
70
58
C8
84
ENDCHAR
STARTCHAR underscore
ENCODING 95
SWIDTH 531 0
DWIDTH 7 0
BBX 5 1 1 -2
BITMAP
F8
ENDCHAR
STARTCHAR grave
ENCODING 96
SWIDTH 308 0
DWIDTH 4 0
BBX 2 2 1 8
BITMAP
80
40
ENDCHAR
STARTCHAR a
ENCODING 97
SWIDTH 577 0
DWIDTH 8 0
BBX 6 7 1 0
BITMAP
F8
8C
0C
FC
8C
8C
FC
ENDCHAR
STARTCHAR b
ENCODING 98
SWIDTH 621 0
DWIDTH 8 0
BBX 6 10 1 0
BITMAP
80
80
80
FC
C4
84
84
84
C4
FC
ENDCHAR
STARTCHAR c
ENCODING 99
SWIDTH 590 0
DWIDTH 8 0
BBX 6 7 1 0
BITMAP
78
8C
84
80
84
8C
78
ENDCHAR
STARTCHAR d
ENCODING 100
SWIDTH 621 0
DWIDTH 8 0
BBX 6 10 1 0
BITMAP
04
04
04
FC
84
84
84
84
84
FC
ENDCHAR
STARTCHAR e
ENCODING 101
SWIDTH 594 0
DWIDTH 8 0
BBX 6 7 1 0
BITMAP
78
8C
84
FC
80
84
78
ENDCHAR
STARTCHAR f
ENCODING 102
SWIDTH 335 0
DWIDTH 4 0
BBX 4 10 0 0
BITMAP
30
60
60
F0
60
60
60
60
60
60
ENDCHAR
STARTCHAR g
ENCODING 103
SWIDTH 615 0
DWIDTH 8 0
BBX 6 10 1 -3
BITMAP
FC
8C
84
84
84
84
FC
04
84
F8
ENDCHAR
STARTCHAR h
ENCODING 104
SWIDTH 594 0
DWIDTH 8 0
BBX 6 10 1 0
BITMAP
80
80
80
B8
CC
84
84
84
84
84
ENDCHAR
STARTCHAR i
ENCODING 105
SWIDTH 228 0
DWIDTH 3 0
BBX 1 10 1 0
BITMAP
80
80
00
80
80
80
80
80
80
80
ENDCHAR
STARTCHAR j
ENCODING 106
SWIDTH 228 0
DWIDTH 3 0
BBX 2 13 0 -3
BITMAP
40
40
00
40
40
40
40
40
40
40
40
40
C0
ENDCHAR
STARTCHAR k
ENCODING 107
SWIDTH 519 0
DWIDTH 7 0
BBX 5 10 1 0
BITMAP
80
80
80
88
90
A0
E0
B0
98
88
ENDCHAR
STARTCHAR l
ENCODING 108
SWIDTH 228 0
DWIDTH 3 0
BBX 1 10 1 0
BITMAP
80
80
80
80
80
80
80
80
80
80
ENDCHAR
STARTCHAR m
ENCODING 109
SWIDTH 918 0
DWIDTH 12 0
BBX 10 7 1 0
BITMAP
FB80
8C40
8C40
8C40
8C40
8C40
8C40
ENDCHAR
STARTCHAR n
ENCODING 110
SWIDTH 594 0
DWIDTH 8 0
BBX 6 7 1 0
BITMAP
B8
CC
84
84
84
84
84
ENDCHAR
STARTCHAR o
ENCODING 111
SWIDTH 612 0
DWIDTH 8 0
BBX 6 7 1 0
BITMAP
78
84
84
84
84
84
78
ENDCHAR
STARTCHAR p
ENCODING 112
SWIDTH 621 0
DWIDTH 8 0
BBX 6 10 1 -3
BITMAP
FC
C4
84
84
84
C4
FC
80
80
80
ENDCHAR
STARTCHAR q
ENCODING 113
SWIDTH 621 0
DWIDTH 8 0
BBX 6 10 1 -3
BITMAP
FC
84
84
84
84
84
FC
04
04
04
ENDCHAR
STARTCHAR r
ENCODING 114
SWIDTH 389 0
DWIDTH 5 0
BBX 4 7 1 0
BITMAP
F0
C0
80
80
80
80
80
ENDCHAR
STARTCHAR s
ENCODING 115
SWIDTH 559 0
DWIDTH 7 0
BBX 6 7 1 0
BITMAP
F8
88
80
F8
0C
8C
F8
ENDCHAR
STARTCHAR t
ENCODING 116
SWIDTH 367 0
DWIDTH 5 0
BBX 4 9 0 0
BITMAP
40
40
F0
40
40
40
40
60
30
ENDCHAR
STARTCHAR u
ENCODING 117
SWIDTH 588 0
DWIDTH 8 0
BBX 6 7 1 0
BITMAP
84
84
84
84
84
8C
F4
ENDCHAR
STARTCHAR v
ENCODING 118
SWIDTH 543 0
DWIDTH 7 0
BBX 7 7 0 0
BITMAP
C6
44
44
6C
28
28
38
ENDCHAR
STARTCHAR w
ENCODING 119
SWIDTH 831 0
DWIDTH 11 0
BBX 10 7 0 0
BITMAP
C440
4E40
4A40
4AC0
3A80
3380
3180
ENDCHAR
STARTCHAR x
ENCODING 120
SWIDTH 546 0
DWIDTH 7 0
BBX 7 7 0 0
BITMAP
44
6C
38
10
28
6C
C6
ENDCHAR
STARTCHAR y
ENCODING 121
SWIDTH 546 0
DWIDTH 7 0
BBX 7 10 0 -3
BITMAP
C6
44
44
6C
28
28
18
10
10
60
ENDCHAR
STARTCHAR z
ENCODING 122
SWIDTH 503 0
DWIDTH 7 0
BBX 5 7 1 0
BITMAP
F8
18
30
60
40
80
F8
ENDCHAR
STARTCHAR braceleft
ENCODING 123
SWIDTH 334 0
DWIDTH 4 0
BBX 4 10 0 0
BITMAP
30
60
60
60
60
C0
60
60
60
30
ENDCHAR
STARTCHAR bar
ENCODING 124
SWIDTH 248 0
DWIDTH 3 0
BBX 1 11 1 -1
BITMAP
80
80
80
80
80
80
80
80
80
80
80
ENDCHAR
STARTCHAR braceright
ENCODING 125
SWIDTH 334 0
DWIDTH 4 0
BBX 3 10 1 0
BITMAP
C0
40
40
40
40
60
40
40
40
C0
ENDCHAR
STARTCHAR asciitilde
ENCODING 126
SWIDTH 597 0
DWIDTH 8 0
BBX 6 2 1 3
BITMAP
E4
9C
ENDCHAR
STARTCHAR uni00A0
ENCODING 160
SWIDTH 272 0
DWIDTH 4 0
BBX 1 1 0 0
BITMAP
00
ENDCHAR
STARTCHAR exclamdown
ENCODING 161
SWIDTH 245 0
DWIDTH 3 0
BBX 1 9 1 -2
BITMAP
80
80
00
80
80
80
80
80
80
ENDCHAR
STARTCHAR cent
ENCODING 162
SWIDTH 601 0
DWIDTH 8 0
BBX 6 10 1 0
BITMAP
30
30
FC
B4
B0
B0
B4
FC
78
30
ENDCHAR
STARTCHAR sterling
ENCODING 163
SWIDTH 725 0
DWIDTH 9 0
BBX 8 10 1 0
BITMAP
3E
63
43
40
40
F8
40
40
C0
FF
ENDCHAR
STARTCHAR currency
ENCODING 164
SWIDTH 688 0
DWIDTH 9 0
BBX 7 9 1 0
BITMAP
82
FE
C6
86
82
86
C6
FE
82
ENDCHAR
STARTCHAR yen
ENCODING 165
SWIDTH 734 0
DWIDTH 10 0
BBX 9 10 0 0
BITMAP
C080
4180
2100
3200
1600
1C00
7F00
0800
7F00
0800
ENDCHAR
STARTCHAR brokenbar
ENCODING 166
SWIDTH 248 0
DWIDTH 3 0
BBX 1 11 1 -1
BITMAP
80
80
80
80
00
00
80
80
80
80
80
ENDCHAR
STARTCHAR section
ENCODING 167
SWIDTH 705 0
DWIDTH 9 0
BBX 7 13 1 -3
BITMAP
7C
82
82
C0
7E
82
82
C2
FC
02
82
82
7E
ENDCHAR
STARTCHAR dieresis
ENCODING 168
SWIDTH 360 0
DWIDTH 5 0
BBX 3 2 1 8
BITMAP
A0
A0
ENDCHAR
STARTCHAR copyright
ENCODING 169
SWIDTH 881 0
DWIDTH 11 0
BBX 10 10 1 0
BITMAP
7F00
C080
9EC0
B240
A040
A040
B240
9EC0
C080
7F00
ENDCHAR
STARTCHAR ordfeminine
ENCODING 170
SWIDTH 487 0
DWIDTH 6 0
BBX 4 6 1 4
BITMAP
F0
90
F0
90
90
F0
ENDCHAR
STARTCHAR guillemotleft
ENCODING 171
SWIDTH 465 0
DWIDTH 6 0
BBX 4 5 1 1
BITMAP
D0
A0
A0
B0
50
ENDCHAR
STARTCHAR logicalnot
ENCODING 172
SWIDTH 597 0
DWIDTH 8 0
BBX 6 4 1 2
BITMAP
FC
04
04
04
ENDCHAR
STARTCHAR registered
ENCODING 174
SWIDTH 547 0
DWIDTH 7 0
BBX 5 6 1 4
BITMAP
F8
F8
D8
F8
C8
70
ENDCHAR
STARTCHAR macron
ENCODING 175
SWIDTH 354 0
DWIDTH 5 0
BBX 3 1 1 8
BITMAP
E0
ENDCHAR
STARTCHAR degree
ENCODING 176
SWIDTH 506 0
DWIDTH 7 0
BBX 5 6 1 4
BITMAP
F0
88
88
88
88
F0
ENDCHAR
STARTCHAR plusminus
ENCODING 177
SWIDTH 597 0
DWIDTH 8 0
BBX 6 8 1 0
BITMAP
20
20
FC
20
20
20
00
FC
ENDCHAR
STARTCHAR uni00B2
ENCODING 178
SWIDTH 412 0
DWIDTH 5 0
BBX 5 5 0 6
BITMAP
78
48
78
C0
F8
ENDCHAR
STARTCHAR uni00B3
ENCODING 179
SWIDTH 412 0
DWIDTH 5 0
BBX 5 5 0 6
BITMAP
78
C8
30
88
78
ENDCHAR
STARTCHAR acute
ENCODING 180
SWIDTH 304 0
DWIDTH 4 0
BBX 2 2 1 8
BITMAP
40
80
ENDCHAR
STARTCHAR uni00B5
ENCODING 181
SWIDTH 598 0
DWIDTH 8 0
BBX 6 10 1 -3
BITMAP
84
84
84
84
84
CC
F4
80
80
80
ENDCHAR
STARTCHAR paragraph
ENCODING 182
SWIDTH 720 0
DWIDTH 9 0
BBX 8 10 0 0
BITMAP
7F
7D
FD
FD
7D
7D
3D
05
05
05
ENDCHAR
STARTCHAR periodcentered
ENCODING 183
SWIDTH 228 0
DWIDTH 3 0
BBX 1 2 1 3
BITMAP
80
80
ENDCHAR
STARTCHAR cedilla
ENCODING 184
SWIDTH 327 0
DWIDTH 4 0
BBX 3 3 1 -3
BITMAP
40
A0
C0
ENDCHAR
STARTCHAR uni00B9
ENCODING 185
SWIDTH 276 0
DWIDTH 4 0
BBX 3 5 0 6
BITMAP
60
A0
20
20
20
ENDCHAR
STARTCHAR ordmasculine
ENCODING 186
SWIDTH 502 0
DWIDTH 7 0
BBX 5 6 1 4
BITMAP
F0
88
88
88
88
F0
ENDCHAR
STARTCHAR guillemotright
ENCODING 187
SWIDTH 465 0
DWIDTH 6 0
BBX 4 5 1 1
BITMAP
B0
50
50
D0
A0
ENDCHAR
STARTCHAR onequarter
ENCODING 188
SWIDTH 782 0
DWIDTH 10 0
BBX 10 10 0 0
BITMAP
6200
E200
2600
2400
2C00
2980
1B80
1680
37C0
2080
ENDCHAR
STARTCHAR onehalf
ENCODING 189
SWIDTH 836 0
DWIDTH 11 0
BBX 10 10 0 0
BITMAP
6200
E200
2600
2400
2FC0
0A40
1840
13C0
3200
23C0
ENDCHAR
STARTCHAR threequarters
ENCODING 190
SWIDTH 896 0
DWIDTH 12 0
BBX 11 10 0 0
BITMAP
7880
4980
3100
0B00
CA00
7E60
04A0
0D20
0BE0
1820
ENDCHAR
STARTCHAR questiondown
ENCODING 191
SWIDTH 570 0
DWIDTH 7 0
BBX 7 10 0 -3
BITMAP
18
18
00
08
38
60
C0
C2
46
7C
ENDCHAR
STARTCHAR Agrave
ENCODING 192
SWIDTH 758 0
DWIDTH 10 0
BBX 10 13 0 0
BITMAP
1000
0800
0000
0C00
1C00
1600
1200
3300
2100
6100
7F80
4080
C0C0
ENDCHAR
STARTCHAR Aacute
ENCODING 193
SWIDTH 758 0
DWIDTH 10 0
BBX 10 13 0 0
BITMAP
0600
0400
0000
0C00
1C00
1600
1200
3300
2100
6100
7F80
4080
C0C0
ENDCHAR
STARTCHAR Acircumflex
ENCODING 194
SWIDTH 758 0
DWIDTH 10 0
BBX 10 13 0 0
BITMAP
0C00
1600
0000
0C00
1C00
1600
1200
3300
2100
6100
7F80
4080
C0C0
ENDCHAR
STARTCHAR Atilde
ENCODING 195
SWIDTH 758 0
DWIDTH 10 0
BBX 10 13 0 0
BITMAP
0A00
1600
0000
0C00
1C00
1600
1200
3300
2100
6100
7F80
4080
C0C0
ENDCHAR
STARTCHAR Adieresis
ENCODING 196
SWIDTH 758 0
DWIDTH 10 0
BBX 10 13 0 0
BITMAP
1600
1600
0000
0C00
1C00
1600
1200
3300
2100
6100
7F80
4080
C0C0
ENDCHAR
STARTCHAR Aring
ENCODING 197
SWIDTH 758 0
DWIDTH 10 0
BBX 10 13 0 0
BITMAP
0C00
0C00
0000
0C00
1C00
1600
1200
3300
2100
6100
7F80
4080
C0C0
ENDCHAR
STARTCHAR AE
ENCODING 198
SWIDTH 1129 0
DWIDTH 15 0
BBX 14 10 0 0
BITMAP
03FC
0780
0580
0D80
19FC
1180
3180
7F80
4180
C1FC
ENDCHAR
STARTCHAR Ccedilla
ENCODING 199
SWIDTH 758 0
DWIDTH 10 0
BBX 8 13 1 -3
BITMAP
7E
C3
81
81
80
80
81
81
C3
7E
08
14
1C
ENDCHAR
STARTCHAR Egrave
ENCODING 200
SWIDTH 661 0
DWIDTH 9 0
BBX 7 13 1 0
BITMAP
20
10
00
FE
80
80
80
FE
80
80
80
80
FE
ENDCHAR
STARTCHAR Eacute
ENCODING 201
SWIDTH 661 0
DWIDTH 9 0
BBX 7 13 1 0
BITMAP
08
10
00
FE
80
80
80
FE
80
80
80
80
FE
ENDCHAR
STARTCHAR Ecircumflex
ENCODING 202
SWIDTH 661 0
DWIDTH 9 0
BBX 7 13 1 0
BITMAP
10
28
00
FE
80
80
80
FE
80
80
80
80
FE
ENDCHAR
STARTCHAR Edieresis
ENCODING 203
SWIDTH 661 0
DWIDTH 9 0
BBX 7 13 1 0
BITMAP
28
28
00
FE
80
80
80
FE
80
80
80
80
FE
ENDCHAR
STARTCHAR Igrave
ENCODING 204
SWIDTH 250 0
DWIDTH 3 0
BBX 2 13 0 0
BITMAP
80
40
00
40
40
40
40
40
40
40
40
40
40
ENDCHAR
STARTCHAR Iacute
ENCODING 205
SWIDTH 250 0
DWIDTH 3 0
BBX 2 13 1 0
BITMAP
40
C0
00
80
80
80
80
80
80
80
80
80
80
ENDCHAR
STARTCHAR Icircumflex
ENCODING 206
SWIDTH 250 0
DWIDTH 3 0
BBX 3 13 0 0
BITMAP
60
A0
00
40
40
40
40
40
40
40
40
40
40
ENDCHAR
STARTCHAR Idieresis
ENCODING 207
SWIDTH 250 0
DWIDTH 3 0
BBX 3 13 0 0
BITMAP
A0
A0
00
40
40
40
40
40
40
40
40
40
40
ENDCHAR
STARTCHAR Eth
ENCODING 208
SWIDTH 791 0
DWIDTH 10 0
BBX 9 10 1 0
BITMAP
FE00
C300
C100
C180
F180
C180
C100
C100
C300
FE00
ENDCHAR
STARTCHAR Ntilde
ENCODING 209
SWIDTH 805 0
DWIDTH 10 0
BBX 9 13 1 0
BITMAP
1400
2C00
0000
C180
E180
A180
9180
9980
8980
8D80
8780
8380
8380
ENDCHAR
STARTCHAR Ograve
ENCODING 210
SWIDTH 803 0
DWIDTH 10 0
BBX 9 13 1 0
BITMAP
3000
1800
0000
7E00
C300
8180
8180
8180
8180
8180
8180
C300
7E00
ENDCHAR
STARTCHAR Oacute
ENCODING 211
SWIDTH 803 0
DWIDTH 10 0
BBX 9 13 1 0
BITMAP
0400
0800
0000
7E00
C300
8180
8180
8180
8180
8180
8180
C300
7E00
ENDCHAR
STARTCHAR Ocircumflex
ENCODING 212
SWIDTH 803 0
DWIDTH 10 0
BBX 9 13 1 0
BITMAP
1800
1400
0000
7E00
C300
8180
8180
8180
8180
8180
8180
C300
7E00
ENDCHAR
STARTCHAR Otilde
ENCODING 213
SWIDTH 803 0
DWIDTH 10 0
BBX 9 13 1 0
BITMAP
1400
2C00
0000
7E00
C300
8180
8180
8180
8180
8180
8180
C300
7E00
ENDCHAR
STARTCHAR Odieresis
ENCODING 214
SWIDTH 803 0
DWIDTH 10 0
BBX 9 13 1 0
BITMAP
3400
3400
0000
7E00
C300
8180
8180
8180
8180
8180
8180
C300
7E00
ENDCHAR
STARTCHAR multiply
ENCODING 215
SWIDTH 597 0
DWIDTH 8 0
BBX 6 6 1 1
BITMAP
84
48
30
30
48
88
ENDCHAR
STARTCHAR Oslash
ENCODING 216
SWIDTH 804 0
DWIDTH 10 0
BBX 9 12 1 -1
BITMAP
0180
7F00
C300
8780
8580
8980
9980
B180
A180
C300
FE00
8000
ENDCHAR
STARTCHAR Ugrave
ENCODING 217
SWIDTH 781 0
DWIDTH 10 0
BBX 8 13 1 0
BITMAP
30
10
00
81
81
81
81
81
81
81
81
C3
7E
ENDCHAR
STARTCHAR Uacute
ENCODING 218
SWIDTH 781 0
DWIDTH 10 0
BBX 8 13 1 0
BITMAP
04
08
00
81
81
81
81
81
81
81
81
C3
7E
ENDCHAR
STARTCHAR Ucircumflex
ENCODING 219
SWIDTH 781 0
DWIDTH 10 0
BBX 8 13 1 0
BITMAP
18
34
00
81
81
81
81
81
81
81
81
C3
7E
ENDCHAR
STARTCHAR Udieresis
ENCODING 220
SWIDTH 781 0
DWIDTH 10 0
BBX 8 13 1 0
BITMAP
34
34
00
81
81
81
81
81
81
81
81
C3
7E
ENDCHAR
STARTCHAR Yacute
ENCODING 221
SWIDTH 712 0
DWIDTH 9 0
BBX 9 13 0 0
BITMAP
0400
0C00
0000
C180
4100
2300
3200
1600
1C00
0800
0800
0800
0800
ENDCHAR
STARTCHAR Thorn
ENCODING 222
SWIDTH 725 0
DWIDTH 9 0
BBX 8 10 1 0
BITMAP
80
80
FE
83
81
81
83
FE
80
80
ENDCHAR
STARTCHAR germandbls
ENCODING 223
SWIDTH 641 0
DWIDTH 8 0
BBX 7 10 1 0
BITMAP
7C
C4
84
84
B8
84
86
86
86
BC
ENDCHAR
STARTCHAR agrave
ENCODING 224
SWIDTH 577 0
DWIDTH 8 0
BBX 6 10 1 0
BITMAP
40
20
00
F8
8C
0C
FC
8C
8C
FC
ENDCHAR
STARTCHAR aacute
ENCODING 225
SWIDTH 577 0
DWIDTH 8 0
BBX 6 10 1 0
BITMAP
10
30
00
F8
8C
0C
FC
8C
8C
FC
ENDCHAR
STARTCHAR acircumflex
ENCODING 226
SWIDTH 577 0
DWIDTH 8 0
BBX 6 10 1 0
BITMAP
30
58
00
F8
8C
0C
FC
8C
8C
FC
ENDCHAR
STARTCHAR atilde
ENCODING 227
SWIDTH 577 0
DWIDTH 8 0
BBX 6 10 1 0
BITMAP
28
70
00
F8
8C
0C
FC
8C
8C
FC
ENDCHAR
STARTCHAR adieresis
ENCODING 228
SWIDTH 577 0
DWIDTH 8 0
BBX 6 10 1 0
BITMAP
50
50
00
F8
8C
0C
FC
8C
8C
FC
ENDCHAR
STARTCHAR aring
ENCODING 229
SWIDTH 577 0
DWIDTH 8 0
BBX 6 10 1 0
BITMAP
70
70
00
F8
8C
0C
FC
8C
8C
FC
ENDCHAR
STARTCHAR ae
ENCODING 230
SWIDTH 951 0
DWIDTH 12 0
BBX 11 7 1 0
BITMAP
FBC0
8C40
0C60
FFE0
8C00
8C60
FFC0
ENDCHAR
STARTCHAR ccedilla
ENCODING 231
SWIDTH 590 0
DWIDTH 8 0
BBX 6 10 1 -3
BITMAP
78
8C
84
80
84
8C
78
30
50
30
ENDCHAR
STARTCHAR egrave
ENCODING 232
SWIDTH 594 0
DWIDTH 8 0
BBX 6 10 1 0
BITMAP
60
20
00
78
8C
84
FC
80
84
78
ENDCHAR
STARTCHAR eacute
ENCODING 233
SWIDTH 594 0
DWIDTH 8 0
BBX 6 10 1 0
BITMAP
18
30
00
78
8C
84
FC
80
84
78
ENDCHAR
STARTCHAR ecircumflex
ENCODING 234
SWIDTH 594 0
DWIDTH 8 0
BBX 6 10 1 0
BITMAP
30
58
00
78
8C
84
FC
80
84
78
ENDCHAR
STARTCHAR edieresis
ENCODING 235
SWIDTH 594 0
DWIDTH 8 0
BBX 6 10 1 0
BITMAP
58
58
00
78
8C
84
FC
80
84
78
ENDCHAR
STARTCHAR igrave
ENCODING 236
SWIDTH 228 0
DWIDTH 3 0
BBX 2 10 0 0
BITMAP
80
40
00
40
40
40
40
40
40
40
ENDCHAR
STARTCHAR iacute
ENCODING 237
SWIDTH 228 0
DWIDTH 3 0
BBX 2 10 1 0
BITMAP
40
80
00
80
80
80
80
80
80
80
ENDCHAR
STARTCHAR icircumflex
ENCODING 238
SWIDTH 228 0
DWIDTH 3 0
BBX 3 10 0 0
BITMAP
C0
A0
00
40
40
40
40
40
40
40
ENDCHAR
STARTCHAR idieresis
ENCODING 239
SWIDTH 228 0
DWIDTH 3 0
BBX 3 10 0 0
BITMAP
A0
A0
00
40
40
40
40
40
40
40
ENDCHAR
STARTCHAR eth
ENCODING 240
SWIDTH 616 0
DWIDTH 8 0
BBX 6 10 1 0
BITMAP
7C
18
24
FC
84
84
84
84
84
78
ENDCHAR
STARTCHAR ntilde
ENCODING 241
SWIDTH 594 0
DWIDTH 8 0
BBX 6 10 1 0
BITMAP
28
58
00
B8
CC
84
84
84
84
84
ENDCHAR
STARTCHAR ograve
ENCODING 242
SWIDTH 612 0
DWIDTH 8 0
BBX 6 10 1 0
BITMAP
60
20
00
78
84
84
84
84
84
78
ENDCHAR
STARTCHAR oacute
ENCODING 243
SWIDTH 612 0
DWIDTH 8 0
BBX 6 10 1 0
BITMAP
18
30
00
78
84
84
84
84
84
78
ENDCHAR
STARTCHAR ocircumflex
ENCODING 244
SWIDTH 612 0
DWIDTH 8 0
BBX 6 10 1 0
BITMAP
30
48
00
78
84
84
84
84
84
78
ENDCHAR
STARTCHAR otilde
ENCODING 245
SWIDTH 612 0
DWIDTH 8 0
BBX 6 10 1 0
BITMAP
28
58
00
78
84
84
84
84
84
78
ENDCHAR
STARTCHAR odieresis
ENCODING 246
SWIDTH 612 0
DWIDTH 8 0
BBX 6 10 1 0
BITMAP
58
58
00
78
84
84
84
84
84
78
ENDCHAR
STARTCHAR divide
ENCODING 247
SWIDTH 597 0
DWIDTH 8 0
BBX 6 7 1 1
BITMAP
20
30
00
FC
00
20
30
ENDCHAR
STARTCHAR oslash
ENCODING 248
SWIDTH 612 0
DWIDTH 8 0
BBX 6 7 1 0
BITMAP
7C
8C
94
B4
A4
C4
F8
ENDCHAR
STARTCHAR ugrave
ENCODING 249
SWIDTH 588 0
DWIDTH 8 0
BBX 6 10 1 0
BITMAP
40
20
00
84
84
84
84
84
8C
F4
ENDCHAR
STARTCHAR uacute
ENCODING 250
SWIDTH 588 0
DWIDTH 8 0
BBX 6 10 1 0
BITMAP
10
30
00
84
84
84
84
84
8C
F4
ENDCHAR
STARTCHAR ucircumflex
ENCODING 251
SWIDTH 588 0
DWIDTH 8 0
BBX 6 10 1 0
BITMAP
30
58
00
84
84
84
84
84
8C
F4
ENDCHAR
STARTCHAR udieresis
ENCODING 252
SWIDTH 588 0
DWIDTH 8 0
BBX 6 10 1 0
BITMAP
58
58
00
84
84
84
84
84
8C
F4
ENDCHAR
STARTCHAR yacute
ENCODING 253
SWIDTH 546 0
DWIDTH 7 0
BBX 7 13 0 -3
BITMAP
08
10
00
C6
44
44
6C
28
28
18
10
10
60
ENDCHAR
STARTCHAR thorn
ENCODING 254
SWIDTH 621 0
DWIDTH 8 0
BBX 6 13 1 -3
BITMAP
80
80
80
FC
C4
84
84
84
C4
FC
80
80
80
ENDCHAR
STARTCHAR ydieresis
ENCODING 255
SWIDTH 546 0
DWIDTH 7 0
BBX 7 13 0 -3
BITMAP
28
28
00
C6
44
44
6C
28
28
18
10
10
60
ENDCHAR
STARTCHAR Amacron
ENCODING 256
SWIDTH 758 0
DWIDTH 10 0
BBX 10 12 0 0
BITMAP
1E00
0000
0C00
1C00
1600
1200
3300
2100
6100
7F80
4080
C0C0
ENDCHAR
STARTCHAR amacron
ENCODING 257
SWIDTH 577 0
DWIDTH 8 0
BBX 6 9 1 0
BITMAP
70
00
F8
8C
0C
FC
8C
8C
FC
ENDCHAR
STARTCHAR Abreve
ENCODING 258
SWIDTH 758 0
DWIDTH 10 0
BBX 10 13 0 0
BITMAP
1200
1C00
0000
0C00
1C00
1600
1200
3300
2100
6100
7F80
4080
C0C0
ENDCHAR
STARTCHAR abreve
ENCODING 259
SWIDTH 577 0
DWIDTH 8 0
BBX 6 10 1 0
BITMAP
48
70
00
F8
8C
0C
FC
8C
8C
FC
ENDCHAR
STARTCHAR Aogonek
ENCODING 260
SWIDTH 758 0
DWIDTH 10 0
BBX 10 13 0 -3
BITMAP
0C00
1C00
1600
1200
3300
2100
6100
7F80
4080
C0C0
0080
0080
00C0
ENDCHAR
STARTCHAR aogonek
ENCODING 261
SWIDTH 577 0
DWIDTH 8 0
BBX 6 10 1 -3
BITMAP
F8
8C
0C
FC
8C
8C
FC
08
08
0C
ENDCHAR
STARTCHAR Cacute
ENCODING 262
SWIDTH 758 0
DWIDTH 10 0
BBX 8 13 1 0
BITMAP
04
08
00
7E
C3
81
81
80
80
81
81
C3
7E
ENDCHAR
STARTCHAR cacute
ENCODING 263
SWIDTH 590 0
DWIDTH 8 0
BBX 6 10 1 0
BITMAP
18
30
00
78
8C
84
80
84
8C
78
ENDCHAR
STARTCHAR Ccircumflex
ENCODING 264
SWIDTH 758 0
DWIDTH 10 0
BBX 8 13 1 0
BITMAP
18
34
00
7E
C3
81
81
80
80
81
81
C3
7E
ENDCHAR
STARTCHAR ccircumflex
ENCODING 265
SWIDTH 590 0
DWIDTH 8 0
BBX 6 10 1 0
BITMAP
30
58
00
78
8C
84
80
84
8C
78
ENDCHAR
STARTCHAR Cdotaccent
ENCODING 266
SWIDTH 758 0
DWIDTH 10 0
BBX 8 13 1 0
BITMAP
18
18
00
7E
C3
81
81
80
80
81
81
C3
7E
ENDCHAR
STARTCHAR cdotaccent
ENCODING 267
SWIDTH 590 0
DWIDTH 8 0
BBX 6 10 1 0
BITMAP
30
30
00
78
8C
84
80
84
8C
78
ENDCHAR
STARTCHAR Ccaron
ENCODING 268
SWIDTH 758 0
DWIDTH 10 0
BBX 8 13 1 0
BITMAP
34
18
00
7E
C3
81
81
80
80
81
81
C3
7E
ENDCHAR
STARTCHAR ccaron
ENCODING 269
SWIDTH 590 0
DWIDTH 8 0
BBX 6 10 1 0
BITMAP
58
30
00
78
8C
84
80
84
8C
78
ENDCHAR
STARTCHAR Dcaron
ENCODING 270
SWIDTH 767 0
DWIDTH 10 0
BBX 8 13 1 0
BITMAP
24
18
00
FE
83
81
81
81
81
81
81
83
FE
ENDCHAR
STARTCHAR dcaron
ENCODING 271
SWIDTH 662 0
DWIDTH 9 0
BBX 8 10 1 0
BITMAP
05
05
05
FC
84
84
84
84
84
FC
ENDCHAR
STARTCHAR Dcroat
ENCODING 272
SWIDTH 791 0
DWIDTH 10 0
BBX 9 10 1 0
BITMAP
FE00
C300
C100
C180
F180
C180
C100
C100
C300
FE00
ENDCHAR
STARTCHAR dcroat
ENCODING 273
SWIDTH 621 0
DWIDTH 8 0
BBX 7 10 1 0
BITMAP
04
1E
04
FC
84
84
84
84
84
FC
ENDCHAR
STARTCHAR Emacron
ENCODING 274
SWIDTH 661 0
DWIDTH 9 0
BBX 7 12 1 0
BITMAP
38
00
FE
80
80
80
FE
80
80
80
80
FE
ENDCHAR
STARTCHAR emacron
ENCODING 275
SWIDTH 594 0
DWIDTH 8 0
BBX 6 9 1 0
BITMAP
78
00
78
8C
84
FC
80
84
78
ENDCHAR
STARTCHAR Ebreve
ENCODING 276
SWIDTH 661 0
DWIDTH 9 0
BBX 7 13 1 0
BITMAP
28
38
00
FE
80
80
80
FE
80
80
80
80
FE
ENDCHAR
STARTCHAR ebreve
ENCODING 277
SWIDTH 594 0
DWIDTH 8 0
BBX 6 10 1 0
BITMAP
48
70
00
78
8C
84
FC
80
84
78
ENDCHAR
STARTCHAR Edotaccent
ENCODING 278
SWIDTH 661 0
DWIDTH 9 0
BBX 7 13 1 0
BITMAP
10
10
00
FE
80
80
80
FE
80
80
80
80
FE
ENDCHAR
STARTCHAR edotaccent
ENCODING 279
SWIDTH 594 0
DWIDTH 8 0
BBX 6 10 1 0
BITMAP
30
30
00
78
8C
84
FC
80
84
78
ENDCHAR
STARTCHAR Eogonek
ENCODING 280
SWIDTH 661 0
DWIDTH 9 0
BBX 7 13 1 -3
BITMAP
FE
80
80
80
FE
80
80
80
80
FE
04
04
06
ENDCHAR
STARTCHAR eogonek
ENCODING 281
SWIDTH 594 0
DWIDTH 8 0
BBX 6 10 1 -3
BITMAP
78
8C
84
FC
80
84
78
10
10
18
ENDCHAR
STARTCHAR Ecaron
ENCODING 282
SWIDTH 661 0
DWIDTH 9 0
BBX 7 13 1 0
BITMAP
28
30
00
FE
80
80
80
FE
80
80
80
80
FE
ENDCHAR
STARTCHAR ecaron
ENCODING 283
SWIDTH 594 0
DWIDTH 8 0
BBX 6 10 1 0
BITMAP
58
30
00
78
8C
84
FC
80
84
78
ENDCHAR
STARTCHAR Gcircumflex
ENCODING 284
SWIDTH 782 0
DWIDTH 10 0
BBX 8 13 1 0
BITMAP
18
14
00
7E
C3
81
80
80
8F
81
81
C3
7E
ENDCHAR
STARTCHAR gcircumflex
ENCODING 285
SWIDTH 615 0
DWIDTH 8 0
BBX 6 13 1 -3
BITMAP
30
58
00
F4
8C
84
84
84
84
FC
04
84
F8
ENDCHAR
STARTCHAR Gbreve
ENCODING 286
SWIDTH 782 0
DWIDTH 10 0
BBX 8 13 1 0
BITMAP
24
1C
00
7E
C3
81
80
80
8F
81
81
C3
7E
ENDCHAR
STARTCHAR gbreve
ENCODING 287
SWIDTH 615 0
DWIDTH 8 0
BBX 6 13 1 -3
BITMAP
48
70
00
F4
8C
84
84
84
84
FC
04
84
F8
ENDCHAR
STARTCHAR Gdotaccent
ENCODING 288
SWIDTH 782 0
DWIDTH 10 0
BBX 8 13 1 0
BITMAP
08
08
00
7E
C3
81
80
80
8F
81
81
C3
7E
ENDCHAR
STARTCHAR gdotaccent
ENCODING 289
SWIDTH 615 0
DWIDTH 8 0
BBX 6 13 1 -3
BITMAP
30
30
00
F4
8C
84
84
84
84
FC
04
84
F8
ENDCHAR
STARTCHAR uni0122
ENCODING 290
SWIDTH 782 0
DWIDTH 10 0
BBX 8 13 1 -3
BITMAP
7E
C3
81
80
80
8F
81
81
C3
7E
00
08
08
ENDCHAR
STARTCHAR uni0123
ENCODING 291
SWIDTH 615 0
DWIDTH 8 0
BBX 6 13 1 -3
BITMAP
20
30
00
FC
8C
84
84
84
84
FC
04
84
F8
ENDCHAR
STARTCHAR Hcircumflex
ENCODING 292
SWIDTH 782 0
DWIDTH 10 0
BBX 8 13 1 0
BITMAP
18
34
00
81
81
81
81
FF
81
81
81
81
81
ENDCHAR
STARTCHAR hcircumflex
ENCODING 293
SWIDTH 594 0
DWIDTH 8 0
BBX 7 13 0 0
BITMAP
40
A0
00
40
40
40
5C
66
42
42
42
42
42
ENDCHAR
STARTCHAR Hbar
ENCODING 294
SWIDTH 817 0
DWIDTH 11 0
BBX 10 10 0 0
BITMAP
6080
6080
FFC0
6080
7F80
6080
6080
6080
6080
6080
ENDCHAR
STARTCHAR hbar
ENCODING 295
SWIDTH 594 0
DWIDTH 8 0
BBX 7 10 0 0
BITMAP
40
F0
40
5C
66
42
42
42
42
42
ENDCHAR
STARTCHAR Itilde
ENCODING 296
SWIDTH 250 0
DWIDTH 3 0
BBX 3 13 0 0
BITMAP
80
E0
00
40
40
40
40
40
40
40
40
40
40
ENDCHAR
STARTCHAR itilde
ENCODING 297
SWIDTH 228 0
DWIDTH 3 0
BBX 3 10 0 0
BITMAP
80
E0
00
40
40
40
40
40
40
40
ENDCHAR
STARTCHAR Imacron
ENCODING 298
SWIDTH 250 0
DWIDTH 3 0
BBX 3 12 0 0
BITMAP
E0
00
40
40
40
40
40
40
40
40
40
40
ENDCHAR
STARTCHAR imacron
ENCODING 299
SWIDTH 228 0
DWIDTH 3 0
BBX 3 9 0 0
BITMAP
E0
00
40
40
40
40
40
40
40
ENDCHAR
STARTCHAR Ibreve
ENCODING 300
SWIDTH 250 0
DWIDTH 3 0
BBX 3 13 0 0
BITMAP
A0
E0
00
40
40
40
40
40
40
40
40
40
40
ENDCHAR
STARTCHAR ibreve
ENCODING 301
SWIDTH 228 0
DWIDTH 3 0
BBX 3 10 0 0
BITMAP
A0
E0
00
40
40
40
40
40
40
40
ENDCHAR
STARTCHAR Iogonek
ENCODING 302
SWIDTH 250 0
DWIDTH 3 0
BBX 3 13 0 -3
BITMAP
40
40
40
40
40
40
40
40
40
40
40
C0
60
ENDCHAR
STARTCHAR iogonek
ENCODING 303
SWIDTH 228 0
DWIDTH 3 0
BBX 2 13 0 -3
BITMAP
40
40
00
40
40
40
40
40
40
40
40
80
C0
ENDCHAR
STARTCHAR Idotaccent
ENCODING 304
SWIDTH 250 0
DWIDTH 3 0
BBX 1 13 1 0
BITMAP
80
80
00
80
80
80
80
80
80
80
80
80
80
ENDCHAR
STARTCHAR dotlessi
ENCODING 305
SWIDTH 228 0
DWIDTH 3 0
BBX 1 7 1 0
BITMAP
80
80
80
80
80
80
80
ENDCHAR
STARTCHAR IJ
ENCODING 306
SWIDTH 895 0
DWIDTH 12 0
BBX 10 10 1 0
BITMAP
80C0
80C0
80C0
80C0
80C0
80C0
90C0
90C0
9080
8F80
ENDCHAR
STARTCHAR ij
ENCODING 307
SWIDTH 456 0
DWIDTH 6 0
BBX 4 13 1 -3
BITMAP
90
90
00
90
90
90
90
90
90
90
10
10
30
ENDCHAR
STARTCHAR Jcircumflex
ENCODING 308
SWIDTH 643 0
DWIDTH 8 0
BBX 9 13 0 0
BITMAP
0300
0580
0000
0200
0200
0200
0200
0200
0200
C200
C200
4200
7C00
ENDCHAR
STARTCHAR jcircumflex
ENCODING 309
SWIDTH 228 0
DWIDTH 3 0
BBX 3 13 0 -3
BITMAP
C0
A0
00
40
40
40
40
40
40
40
40
40
C0
ENDCHAR
STARTCHAR uni0136
ENCODING 310
SWIDTH 701 0
DWIDTH 9 0
BBX 8 13 1 -3
BITMAP
82
84
88
98
F0
90
98
8C
86
83
00
10
10
ENDCHAR
STARTCHAR uni0137
ENCODING 311
SWIDTH 519 0
DWIDTH 7 0
BBX 5 13 1 -3
BITMAP
80
80
80
88
90
A0
E0
B0
98
88
00
20
20
ENDCHAR
STARTCHAR kgreenlandic
ENCODING 312
SWIDTH 515 0
DWIDTH 7 0
BBX 5 7 1 0
BITMAP
88
90
A0
E0
B0
90
88
ENDCHAR
STARTCHAR Lacute
ENCODING 313
SWIDTH 589 0
DWIDTH 8 0
BBX 6 13 1 0
BITMAP
40
C0
00
80
80
80
80
80
80
80
80
80
FC
ENDCHAR
STARTCHAR lacute
ENCODING 314
SWIDTH 228 0
DWIDTH 3 0
BBX 2 13 1 0
BITMAP
40
80
00
80
80
80
80
80
80
80
80
80
80
ENDCHAR
STARTCHAR uni013B
ENCODING 315
SWIDTH 589 0
DWIDTH 8 0
BBX 6 13 1 -3
BITMAP
80
80
80
80
80
80
80
80
80
FC
00
10
10
ENDCHAR
STARTCHAR uni013C
ENCODING 316
SWIDTH 228 0
DWIDTH 3 0
BBX 1 13 1 -3
BITMAP
80
80
80
80
80
80
80
80
80
80
00
80
80
ENDCHAR
STARTCHAR Lcaron
ENCODING 317
SWIDTH 589 0
DWIDTH 8 0
BBX 6 10 1 0
BITMAP
90
90
B0
80
80
80
80
80
80
FC
ENDCHAR
STARTCHAR lcaron
ENCODING 318
SWIDTH 257 0
DWIDTH 3 0
BBX 3 10 1 0
BITMAP
A0
A0
A0
80
80
80
80
80
80
80
ENDCHAR
STARTCHAR Ldot
ENCODING 319
SWIDTH 589 0
DWIDTH 8 0
BBX 6 10 1 0
BITMAP
80
80
80
80
88
88
80
80
80
FC
ENDCHAR
STARTCHAR ldot
ENCODING 320
SWIDTH 285 0
DWIDTH 4 0
BBX 3 10 1 0
BITMAP
80
80
80
80
A0
A0
80
80
80
80
ENDCHAR
STARTCHAR Lslash
ENCODING 321
SWIDTH 613 0
DWIDTH 8 0
BBX 7 10 1 0
BITMAP
C0
C0
C0
D0
F0
C0
C0
C0
C0
FE
ENDCHAR
STARTCHAR lslash
ENCODING 322
SWIDTH 290 0
DWIDTH 4 0
BBX 2 10 1 0
BITMAP
C0
C0
C0
C0
C0
C0
C0
C0
C0
C0
ENDCHAR
STARTCHAR Nacute
ENCODING 323
SWIDTH 805 0
DWIDTH 10 0
BBX 9 13 1 0
BITMAP
0400
0800
0000
C180
E180
A180
9180
9980
8980
8D80
8780
8380
8380
ENDCHAR
STARTCHAR nacute
ENCODING 324
SWIDTH 594 0
DWIDTH 8 0
BBX 6 10 1 0
BITMAP
18
30
00
B8
CC
84
84
84
84
84
ENDCHAR
STARTCHAR uni0145
ENCODING 325
SWIDTH 805 0
DWIDTH 10 0
BBX 9 13 1 -3
BITMAP
C180
E180
A180
9180
9980
8980
8D80
8780
8380
8380
0000
0800
0800
ENDCHAR
STARTCHAR uni0146
ENCODING 326
SWIDTH 594 0
DWIDTH 8 0
BBX 6 10 1 -3
BITMAP
B8
CC
84
84
84
84
84
00
30
20
ENDCHAR
STARTCHAR Ncaron
ENCODING 327
SWIDTH 805 0
DWIDTH 10 0
BBX 9 13 1 0
BITMAP
3400
1800
0000
C180
E180
A180
9180
9980
8980
8D80
8780
8380
8380
ENDCHAR
STARTCHAR ncaron
ENCODING 328
SWIDTH 594 0
DWIDTH 8 0
BBX 6 10 1 0
BITMAP
58
30
00
B8
CC
84
84
84
84
84
ENDCHAR
STARTCHAR Eng
ENCODING 330
SWIDTH 805 0
DWIDTH 10 0
BBX 9 13 1 -3
BITMAP
C180
E180
B180
9180
9980
8D80
8580
8380
8380
8180
0180
0100
0700
ENDCHAR
STARTCHAR eng
ENCODING 331
SWIDTH 594 0
DWIDTH 8 0
BBX 6 10 1 -3
BITMAP
B8
CC
84
84
84
84
84
04
04
0C
ENDCHAR
STARTCHAR Omacron
ENCODING 332
SWIDTH 803 0
DWIDTH 10 0
BBX 9 12 1 0
BITMAP
3C00
0000
7E00
C300
8180
8180
8180
8180
8180
8180
C300
7E00
ENDCHAR
STARTCHAR omacron
ENCODING 333
SWIDTH 612 0
DWIDTH 8 0
BBX 6 9 1 0
BITMAP
78
00
78
84
84
84
84
84
78
ENDCHAR
STARTCHAR Obreve
ENCODING 334
SWIDTH 803 0
DWIDTH 10 0
BBX 9 13 1 0
BITMAP
2400
1C00
0000
7E00
C300
8180
8180
8180
8180
8180
8180
C300
7E00
ENDCHAR
STARTCHAR obreve
ENCODING 335
SWIDTH 612 0
DWIDTH 8 0
BBX 6 10 1 0
BITMAP
48
70
00
78
84
84
84
84
84
78
ENDCHAR
STARTCHAR Ohungarumlaut
ENCODING 336
SWIDTH 803 0
DWIDTH 10 0
BBX 9 13 1 0
BITMAP
0A00
1400
0000
7E00
C300
8180
8180
8180
8180
8180
8180
C300
7E00
ENDCHAR
STARTCHAR ohungarumlaut
ENCODING 337
SWIDTH 612 0
DWIDTH 8 0
BBX 6 10 1 0
BITMAP
3C
68
00
78
84
84
84
84
84
78
ENDCHAR
STARTCHAR OE
ENCODING 338
SWIDTH 1204 0
DWIDTH 16 0
BBX 14 10 1 0
BITMAP
7FFC
C300
8100
8100
81FC
8100
8100
8100
C300
7FFC
ENDCHAR
STARTCHAR oe
ENCODING 339
SWIDTH 1010 0
DWIDTH 13 0
BBX 11 7 1 0
BITMAP
7BE0
8620
8420
87E0
8400
8620
7BE0
ENDCHAR
STARTCHAR Racute
ENCODING 340
SWIDTH 744 0
DWIDTH 10 0
BBX 8 13 1 0
BITMAP
0C
18
00
FE
83
83
83
82
FE
83
83
83
83
ENDCHAR
STARTCHAR racute
ENCODING 341
SWIDTH 389 0
DWIDTH 5 0
BBX 4 10 1 0
BITMAP
30
60
00
F0
C0
80
80
80
80
80
ENDCHAR
STARTCHAR uni0156
ENCODING 342
SWIDTH 744 0
DWIDTH 10 0
BBX 8 13 1 -3
BITMAP
FE
83
83
83
82
FE
83
83
83
83
00
18
10
ENDCHAR
STARTCHAR uni0157
ENCODING 343
SWIDTH 389 0
DWIDTH 5 0
BBX 4 10 1 -3
BITMAP
F0
C0
80
80
80
80
80
00
80
80
ENDCHAR
STARTCHAR Rcaron
ENCODING 344
SWIDTH 744 0
DWIDTH 10 0
BBX 8 13 1 0
BITMAP
2C
18
00
FE
83
83
83
82
FE
83
83
83
83
ENDCHAR
STARTCHAR rcaron
ENCODING 345
SWIDTH 389 0
DWIDTH 5 0
BBX 4 10 1 0
BITMAP
B0
60
00
F0
C0
80
80
80
80
80
ENDCHAR
STARTCHAR Sacute
ENCODING 346
SWIDTH 719 0
DWIDTH 9 0
BBX 8 13 1 0
BITMAP
08
10
00
7E
C2
82
80
FC
1F
03
83
C3
7E
ENDCHAR
STARTCHAR sacute
ENCODING 347
SWIDTH 559 0
DWIDTH 7 0
BBX 6 10 1 0
BITMAP
10
20
00
F8
88
80
F8
0C
8C
F8
ENDCHAR
STARTCHAR Scircumflex
ENCODING 348
SWIDTH 719 0
DWIDTH 9 0
BBX 8 13 1 0
BITMAP
10
28
00
7E
C2
82
80
FC
1F
03
83
C3
7E
ENDCHAR
STARTCHAR scircumflex
ENCODING 349
SWIDTH 559 0
DWIDTH 7 0
BBX 6 10 1 0
BITMAP
30
50
00
F8
88
80
F8
0C
8C
F8
ENDCHAR
STARTCHAR Scedilla
ENCODING 350
SWIDTH 719 0
DWIDTH 9 0
BBX 8 13 1 -3
BITMAP
7E
C2
82
80
FC
1F
03
83
C3
7E
18
28
18
ENDCHAR
STARTCHAR scedilla
ENCODING 351
SWIDTH 559 0
DWIDTH 7 0
BBX 6 10 1 -3
BITMAP
F8
88
80
F8
0C
8C
F8
30
50
70
ENDCHAR
STARTCHAR Scaron
ENCODING 352
SWIDTH 719 0
DWIDTH 9 0
BBX 8 13 1 0
BITMAP
28
18
00
7E
C2
82
80
FC
1F
03
83
C3
7E
ENDCHAR
STARTCHAR scaron
ENCODING 353
SWIDTH 559 0
DWIDTH 7 0
BBX 6 10 1 0
BITMAP
50
20
00
F8
88
80
F8
0C
8C
F8
ENDCHAR
STARTCHAR uni0162
ENCODING 354
SWIDTH 658 0
DWIDTH 9 0
BBX 8 13 0 -3
BITMAP
FF
08
08
08
08
08
08
08
08
08
08
14
1C
ENDCHAR
STARTCHAR uni0163
ENCODING 355
SWIDTH 367 0
DWIDTH 5 0
BBX 5 12 0 -3
BITMAP
40
40
F0
40
40
40
40
60
30
30
48
30
ENDCHAR
STARTCHAR Tcaron
ENCODING 356
SWIDTH 658 0
DWIDTH 9 0
BBX 8 13 0 0
BITMAP
34
18
00
FF
08
08
08
08
08
08
08
08
08
ENDCHAR
STARTCHAR tcaron
ENCODING 357
SWIDTH 367 0
DWIDTH 5 0
BBX 4 11 0 0
BITMAP
10
10
50
40
F0
40
40
40
40
60
30
ENDCHAR
STARTCHAR Tbar
ENCODING 358
SWIDTH 671 0
DWIDTH 9 0
BBX 8 10 0 0
BITMAP
FF
08
08
08
08
7E
08
08
08
08
ENDCHAR
STARTCHAR tbar
ENCODING 359
SWIDTH 371 0
DWIDTH 5 0
BBX 4 9 0 0
BITMAP
60
60
F0
60
60
70
60
60
30
ENDCHAR
STARTCHAR Utilde
ENCODING 360
SWIDTH 781 0
DWIDTH 10 0
BBX 8 13 1 0
BITMAP
14
2C
00
81
81
81
81
81
81
81
81
C3
7E
ENDCHAR
STARTCHAR utilde
ENCODING 361
SWIDTH 588 0
DWIDTH 8 0
BBX 6 10 1 0
BITMAP
28
70
00
84
84
84
84
84
8C
F4
ENDCHAR
STARTCHAR Umacron
ENCODING 362
SWIDTH 781 0
DWIDTH 10 0
BBX 8 12 1 0
BITMAP
3C
00
81
81
81
81
81
81
81
81
C3
7E
ENDCHAR
STARTCHAR umacron
ENCODING 363
SWIDTH 588 0
DWIDTH 8 0
BBX 6 9 1 0
BITMAP
78
00
84
84
84
84
84
8C
F4
ENDCHAR
STARTCHAR Ubreve
ENCODING 364
SWIDTH 781 0
DWIDTH 10 0
BBX 8 13 1 0
BITMAP
24
1C
00
81
81
81
81
81
81
81
81
C3
7E
ENDCHAR
STARTCHAR ubreve
ENCODING 365
SWIDTH 588 0
DWIDTH 8 0
BBX 6 10 1 0
BITMAP
48
70
00
84
84
84
84
84
8C
F4
ENDCHAR
STARTCHAR Uring
ENCODING 366
SWIDTH 781 0
DWIDTH 10 0
BBX 8 13 1 0
BITMAP
18
18
00
81
81
81
81
81
81
81
81
C3
7E
ENDCHAR
STARTCHAR uring
ENCODING 367
SWIDTH 588 0
DWIDTH 8 0
BBX 6 10 1 0
BITMAP
70
70
00
84
84
84
84
84
8C
F4
ENDCHAR
STARTCHAR Uhungarumlaut
ENCODING 368
SWIDTH 781 0
DWIDTH 10 0
BBX 8 13 1 0
BITMAP
0A
14
00
81
81
81
81
81
81
81
81
C3
7E
ENDCHAR
STARTCHAR uhungarumlaut
ENCODING 369
SWIDTH 588 0
DWIDTH 8 0
BBX 6 10 1 0
BITMAP
2C
78
00
84
84
84
84
84
8C
F4
ENDCHAR
STARTCHAR Uogonek
ENCODING 370
SWIDTH 781 0
DWIDTH 10 0
BBX 8 13 1 -3
BITMAP
81
81
81
81
81
81
81
81
C3
7E
04
04
06
ENDCHAR
STARTCHAR uogonek
ENCODING 371
SWIDTH 588 0
DWIDTH 8 0
BBX 6 10 1 -3
BITMAP
84
84
84
84
84
8C
F4
08
08
0C
ENDCHAR
STARTCHAR Wcircumflex
ENCODING 372
SWIDTH 1090 0
DWIDTH 14 0
BBX 14 13 0 0
BITMAP
0300
0680
0000
C30C
430C
4388
6688
6498
2490
24D0
3850
1870
1860
ENDCHAR
STARTCHAR wcircumflex
ENCODING 373
SWIDTH 831 0
DWIDTH 11 0
BBX 10 10 0 0
BITMAP
0C00
0A00
0000
C440
4E40
4A40
4AC0
3A80
3380
3180
ENDCHAR
STARTCHAR Ycircumflex
ENCODING 374
SWIDTH 712 0
DWIDTH 9 0
BBX 9 13 0 0
BITMAP
0C00
1400
0000
C180
4100
2300
3200
1600
1C00
0800
0800
0800
0800
ENDCHAR
STARTCHAR ycircumflex
ENCODING 375
SWIDTH 546 0
DWIDTH 7 0
BBX 7 13 0 -3
BITMAP
18
28
00
C6
44
44
6C
28
28
18
10
10
60
ENDCHAR
STARTCHAR Ydieresis
ENCODING 376
SWIDTH 712 0
DWIDTH 9 0
BBX 9 13 0 0
BITMAP
1400
1400
0000
C180
4100
2300
3200
1600
1C00
0800
0800
0800
0800
ENDCHAR
STARTCHAR Zacute
ENCODING 377
SWIDTH 671 0
DWIDTH 9 0
BBX 8 13 0 0
BITMAP
04
08
00
7F
03
06
04
0C
18
30
60
40
FF
ENDCHAR
STARTCHAR zacute
ENCODING 378
SWIDTH 503 0
DWIDTH 7 0
BBX 5 10 1 0
BITMAP
10
20
00
F8
18
30
60
40
80
F8
ENDCHAR
STARTCHAR Zdotaccent
ENCODING 379
SWIDTH 671 0
DWIDTH 9 0
BBX 8 13 0 0
BITMAP
08
08
00
7F
03
06
04
0C
18
30
60
40
FF
ENDCHAR
STARTCHAR zdotaccent
ENCODING 380
SWIDTH 503 0
DWIDTH 7 0
BBX 5 10 1 0
BITMAP
20
20
00
F8
18
30
60
40
80
F8
ENDCHAR
STARTCHAR Zcaron
ENCODING 381
SWIDTH 671 0
DWIDTH 9 0
BBX 8 13 0 0
BITMAP
14
18
00
7F
03
06
04
0C
18
30
60
40
FF
ENDCHAR
STARTCHAR zcaron
ENCODING 382
SWIDTH 503 0
DWIDTH 7 0
BBX 5 10 1 0
BITMAP
50
60
00
F8
18
30
60
40
80
F8
ENDCHAR
STARTCHAR uni018F
ENCODING 399
SWIDTH 784 0
DWIDTH 10 0
BBX 8 10 1 0
BITMAP
7E
C3
81
81
01
FF
81
81
C3
7E
ENDCHAR
STARTCHAR florin
ENCODING 402
SWIDTH 650 0
DWIDTH 8 0
BBX 8 12 0 -2
BITMAP
07
0C
08
08
3F
08
18
18
10
10
10
F0
ENDCHAR
STARTCHAR uni01E2
ENCODING 482
SWIDTH 1129 0
DWIDTH 15 0
BBX 14 12 0 0
BITMAP
00E0
0000
03FC
0780
0580
0D80
19FC
1180
3F80
7F80
4180
C1FC
ENDCHAR
STARTCHAR uni01E3
ENCODING 483
SWIDTH 951 0
DWIDTH 12 0
BBX 11 9 1 0
BITMAP
1E00
0000
FBC0
8C40
0C60
FFE0
8C00
8C60
FFC0
ENDCHAR
STARTCHAR Aringacute
ENCODING 506
SWIDTH 758 0
DWIDTH 10 0
BBX 10 15 0 0
BITMAP
0400
0800
0C00
0C00
0000
0C00
1C00
1600
1200
3300
2100
6100
7F80
4080
C0C0
ENDCHAR
STARTCHAR aringacute
ENCODING 507
SWIDTH 577 0
DWIDTH 8 0
BBX 6 12 1 0
BITMAP
10
20
70
70
00
F8
8C
0C
FC
8C
8C
FC
ENDCHAR
STARTCHAR AEacute
ENCODING 508
SWIDTH 1129 0
DWIDTH 15 0
BBX 14 13 0 0
BITMAP
0020
0040
0000
03FC
0780
0580
0D80
19FC
1180
3F80
7F80
4180
C1FC
ENDCHAR
STARTCHAR aeacute
ENCODING 509
SWIDTH 951 0
DWIDTH 12 0
BBX 11 10 1 0
BITMAP
0200
0400
0000
FBC0
8C40
0C60
FFE0
8C00
8C60
FFC0
ENDCHAR
STARTCHAR Oslashacute
ENCODING 510
SWIDTH 804 0
DWIDTH 10 0
BBX 9 14 1 -1
BITMAP
0400
0800
0180
7F00
C300
8780
8580
8980
9980
B180
A180
C300
FE00
8000
ENDCHAR
STARTCHAR oslashacute
ENCODING 511
SWIDTH 612 0
DWIDTH 8 0
BBX 6 10 1 0
BITMAP
18
30
04
7C
8C
94
B4
A4
C4
F8
ENDCHAR
STARTCHAR uni0218
ENCODING 536
SWIDTH 719 0
DWIDTH 9 0
BBX 8 13 1 -3
BITMAP
7E
C2
82
80
FC
1F
03
83
C3
7E
00
10
10
ENDCHAR
STARTCHAR uni0219
ENCODING 537
SWIDTH 559 0
DWIDTH 7 0
BBX 6 10 1 -3
BITMAP
F8
88
80
F8
0C
8C
F8
00
20
20
ENDCHAR
STARTCHAR uni021A
ENCODING 538
SWIDTH 658 0
DWIDTH 9 0
BBX 8 13 0 -3
BITMAP
FF
08
08
08
08
08
08
08
08
08
00
08
08
ENDCHAR
STARTCHAR uni021B
ENCODING 539
SWIDTH 367 0
DWIDTH 5 0
BBX 4 12 0 -3
BITMAP
40
40
F0
40
40
40
40
60
30
00
20
20
ENDCHAR
STARTCHAR uni0226
ENCODING 550
SWIDTH 758 0
DWIDTH 10 0
BBX 10 13 0 0
BITMAP
0C00
0C00
0000
0C00
1C00
1600
1200
3300
2100
6100
7F80
4080
C0C0
ENDCHAR
STARTCHAR uni0227
ENCODING 551
SWIDTH 577 0
DWIDTH 8 0
BBX 6 10 1 0
BITMAP
20
20
00
F8
8C
0C
FC
8C
8C
FC
ENDCHAR
STARTCHAR uni0232
ENCODING 562
SWIDTH 712 0
DWIDTH 9 0
BBX 9 12 0 0
BITMAP
1C00
0000
C180
4100
2300
3200
1600
1C00
0800
0800
0800
0800
ENDCHAR
STARTCHAR uni0233
ENCODING 563
SWIDTH 546 0
DWIDTH 7 0
BBX 7 12 0 -3
BITMAP
38
00
C6
44
44
6C
28
28
18
10
10
60
ENDCHAR
STARTCHAR uni0237
ENCODING 567
SWIDTH 228 0
DWIDTH 3 0
BBX 2 10 0 -3
BITMAP
40
40
40
40
40
40
40
40
40
C0
ENDCHAR
STARTCHAR uni0259
ENCODING 601
SWIDTH 594 0
DWIDTH 8 0
BBX 6 7 1 0
BITMAP
F8
8C
04
FC
84
8C
78
ENDCHAR
STARTCHAR circumflex
ENCODING 710
SWIDTH 414 0
DWIDTH 5 0
BBX 3 2 1 8
BITMAP
60
A0
ENDCHAR
STARTCHAR caron
ENCODING 711
SWIDTH 406 0
DWIDTH 5 0
BBX 3 2 1 8
BITMAP
A0
60
ENDCHAR
STARTCHAR breve
ENCODING 728
SWIDTH 365 0
DWIDTH 5 0
BBX 3 2 1 7
BITMAP
A0
E0
ENDCHAR
STARTCHAR dotaccent
ENCODING 729
SWIDTH 188 0
DWIDTH 2 0
BBX 1 2 1 8
BITMAP
80
80
ENDCHAR
STARTCHAR ring
ENCODING 730
SWIDTH 312 0
DWIDTH 4 0
BBX 3 3 1 7
BITMAP
C0
A0
C0
ENDCHAR
STARTCHAR ogonek
ENCODING 731
SWIDTH 247 0
DWIDTH 3 0
BBX 2 3 1 -3
BITMAP
80
80
C0
ENDCHAR
STARTCHAR tilde
ENCODING 732
SWIDTH 374 0
DWIDTH 5 0
BBX 3 2 1 7
BITMAP
E0
20
ENDCHAR
STARTCHAR hungarumlaut
ENCODING 733
SWIDTH 460 0
DWIDTH 6 0
BBX 4 2 1 8
BITMAP
50
A0
ENDCHAR
STARTCHAR gravecomb
ENCODING 768
SWIDTH 0 0
DWIDTH 0 0
BBX 2 2 1 8
BITMAP
80
40
ENDCHAR
STARTCHAR acutecomb
ENCODING 769
SWIDTH 0 0
DWIDTH 0 0
BBX 2 2 1 8
BITMAP
40
80
ENDCHAR
STARTCHAR uni0302
ENCODING 770
SWIDTH 0 0
DWIDTH 0 0
BBX 3 2 1 8
BITMAP
60
A0
ENDCHAR
STARTCHAR tildecomb
ENCODING 771
SWIDTH 0 0
DWIDTH 0 0
BBX 3 2 1 7
BITMAP
E0
20
ENDCHAR
STARTCHAR uni0304
ENCODING 772
SWIDTH 0 0
DWIDTH 0 0
BBX 3 1 1 8
BITMAP
E0
ENDCHAR
STARTCHAR uni0306
ENCODING 774
SWIDTH 0 0
DWIDTH 0 0
BBX 3 2 1 7
BITMAP
A0
E0
ENDCHAR
STARTCHAR uni0307
ENCODING 775
SWIDTH 0 0
DWIDTH 0 0
BBX 1 2 1 8
BITMAP
80
80
ENDCHAR
STARTCHAR uni0308
ENCODING 776
SWIDTH 0 0
DWIDTH 0 0
BBX 3 2 1 8
BITMAP
A0
A0
ENDCHAR
STARTCHAR uni030A
ENCODING 778
SWIDTH 0 0
DWIDTH 0 0
BBX 3 3 1 7
BITMAP
C0
A0
C0
ENDCHAR
STARTCHAR uni030B
ENCODING 779
SWIDTH 0 0
DWIDTH 0 0
BBX 4 2 1 8
BITMAP
50
A0
ENDCHAR
STARTCHAR uni030C
ENCODING 780
SWIDTH 0 0
DWIDTH 0 0
BBX 3 2 1 8
BITMAP
A0
60
ENDCHAR
STARTCHAR uni0312
ENCODING 786
SWIDTH 0 0
DWIDTH 0 0
BBX 1 2 1 8
BITMAP
80
80
ENDCHAR
STARTCHAR dotbelowcomb
ENCODING 803
SWIDTH 0 0
DWIDTH 0 0
BBX 1 2 1 -3
BITMAP
80
80
ENDCHAR
STARTCHAR uni0326
ENCODING 806
SWIDTH 0 0
DWIDTH 0 0
BBX 1 2 1 -3
BITMAP
80
80
ENDCHAR
STARTCHAR uni0327
ENCODING 807
SWIDTH 0 0
DWIDTH 0 0
BBX 3 3 1 -3
BITMAP
40
A0
C0
ENDCHAR
STARTCHAR uni0328
ENCODING 808
SWIDTH 0 0
DWIDTH 0 0
BBX 2 3 1 -3
BITMAP
80
80
C0
ENDCHAR
STARTCHAR uni0E3F
ENCODING 3647
SWIDTH 739 0
DWIDTH 10 0
BBX 8 12 1 -1
BITMAP
10
FE
93
93
93
FC
93
91
91
93
FE
10
ENDCHAR
STARTCHAR Wgrave
ENCODING 7808
SWIDTH 1090 0
DWIDTH 14 0
BBX 14 13 0 0
BITMAP
0600
0300
0000
C30C
430C
4388
6688
6498
2490
24D0
3850
1870
1860
ENDCHAR
STARTCHAR wgrave
ENCODING 7809
SWIDTH 831 0
DWIDTH 11 0
BBX 10 10 0 0
BITMAP
0800
0400
0000
C440
4E40
4A40
4AC0
3A80
3380
3180
ENDCHAR
STARTCHAR Wacute
ENCODING 7810
SWIDTH 1090 0
DWIDTH 14 0
BBX 14 13 0 0
BITMAP
0080
0100
0000
C30C
430C
4388
6688
6498
2490
24D0
3850
1870
1860
ENDCHAR
STARTCHAR wacute
ENCODING 7811
SWIDTH 831 0
DWIDTH 11 0
BBX 10 10 0 0
BITMAP
0200
0400
0000
C440
4E40
4A40
4AC0
3A80
3380
3180
ENDCHAR
STARTCHAR Wdieresis
ENCODING 7812
SWIDTH 1090 0
DWIDTH 14 0
BBX 14 13 0 0
BITMAP
0680
0680
0000
C30C
430C
4388
6688
6498
2490
24D0
3850
1870
1860
ENDCHAR
STARTCHAR wdieresis
ENCODING 7813
SWIDTH 831 0
DWIDTH 11 0
BBX 10 10 0 0
BITMAP
0A00
0A00
0000
C440
4E40
4A40
4AC0
3A80
3380
3180
ENDCHAR
STARTCHAR uni1E9E
ENCODING 7838
SWIDTH 749 0
DWIDTH 10 0
BBX 8 10 1 0
BITMAP
7F
C2
86
8C
98
9F
81
81
83
9E
ENDCHAR
STARTCHAR uni1EA0
ENCODING 7840
SWIDTH 758 0
DWIDTH 10 0
BBX 10 13 0 -3
BITMAP
0C00
1C00
1600
1200
3300
2100
6100
7F80
4080
C0C0
0000
0C00
0C00
ENDCHAR
STARTCHAR uni1EA1
ENCODING 7841
SWIDTH 577 0
DWIDTH 8 0
BBX 6 10 1 -3
BITMAP
F8
8C
0C
FC
8C
8C
FC
00
20
20
ENDCHAR
STARTCHAR uni1EB8
ENCODING 7864
SWIDTH 661 0
DWIDTH 9 0
BBX 7 13 1 -3
BITMAP
FE
80
80
80
FE
80
80
80
80
FE
00
10
10
ENDCHAR
STARTCHAR uni1EB9
ENCODING 7865
SWIDTH 594 0
DWIDTH 8 0
BBX 6 10 1 -3
BITMAP
78
8C
84
FC
80
84
78
00
20
20
ENDCHAR
STARTCHAR uni1EBC
ENCODING 7868
SWIDTH 661 0
DWIDTH 9 0
BBX 7 13 1 0
BITMAP
28
58
00
FE
80
80
80
FE
80
80
80
80
FE
ENDCHAR
STARTCHAR uni1EBD
ENCODING 7869
SWIDTH 594 0
DWIDTH 8 0
BBX 6 10 1 0
BITMAP
28
58
00
78
8C
84
FC
80
84
78
ENDCHAR
STARTCHAR uni1ECA
ENCODING 7882
SWIDTH 250 0
DWIDTH 3 0
BBX 1 13 1 -3
BITMAP
80
80
80
80
80
80
80
80
80
80
00
80
80
ENDCHAR
STARTCHAR uni1ECB
ENCODING 7883
SWIDTH 228 0
DWIDTH 3 0
BBX 1 13 1 -3
BITMAP
80
80
00
80
80
80
80
80
80
80
00
80
80
ENDCHAR
STARTCHAR uni1ECC
ENCODING 7884
SWIDTH 803 0
DWIDTH 10 0
BBX 9 13 1 -3
BITMAP
7E00
C300
8180
8180
8180
8180
8180
8180
C300
7E00
0000
0800
0800
ENDCHAR
STARTCHAR uni1ECD
ENCODING 7885
SWIDTH 612 0
DWIDTH 8 0
BBX 6 10 1 -3
BITMAP
78
84
84
84
84
84
78
00
30
30
ENDCHAR
STARTCHAR uni1EE4
ENCODING 7908
SWIDTH 781 0
DWIDTH 10 0
BBX 8 13 1 -3
BITMAP
81
81
81
81
81
81
81
81
C3
7E
00
18
18
ENDCHAR
STARTCHAR uni1EE5
ENCODING 7909
SWIDTH 588 0
DWIDTH 8 0
BBX 6 10 1 -3
BITMAP
84
84
84
84
84
8C
F4
00
20
20
ENDCHAR
STARTCHAR Ygrave
ENCODING 7922
SWIDTH 712 0
DWIDTH 9 0
BBX 9 13 0 0
BITMAP
1000
0800
0000
C180
4100
2300
3200
1600
1C00
0800
0800
0800
0800
ENDCHAR
STARTCHAR ygrave
ENCODING 7923
SWIDTH 546 0
DWIDTH 7 0
BBX 7 13 0 -3
BITMAP
20
10
00
C6
44
44
6C
28
28
18
10
10
60
ENDCHAR
STARTCHAR uni1EF8
ENCODING 7928
SWIDTH 712 0
DWIDTH 9 0
BBX 9 12 0 0
BITMAP
1C00
0000
C180
4100
2300
3200
1600
1C00
0800
0800
0800
0800
ENDCHAR
STARTCHAR uni1EF9
ENCODING 7929
SWIDTH 546 0
DWIDTH 7 0
BBX 7 13 0 -3
BITMAP
20
38
00
C6
44
44
6C
28
28
18
10
10
60
ENDCHAR
STARTCHAR endash
ENCODING 8211
SWIDTH 720 0
DWIDTH 9 0
BBX 8 1 1 3
BITMAP
FF
ENDCHAR
STARTCHAR emdash
ENCODING 8212
SWIDTH 979 0
DWIDTH 13 0
BBX 11 1 1 3
BITMAP
FFE0
ENDCHAR
STARTCHAR quoteleft
ENCODING 8216
SWIDTH 229 0
DWIDTH 3 0
BBX 1 4 1 6
BITMAP
80
80
80
80
ENDCHAR
STARTCHAR quoteright
ENCODING 8217
SWIDTH 226 0
DWIDTH 3 0
BBX 1 3 1 7
BITMAP
80
80
80
ENDCHAR
STARTCHAR quotesinglbase
ENCODING 8218
SWIDTH 234 0
DWIDTH 3 0
BBX 1 3 1 -1
BITMAP
80
80
80
ENDCHAR
STARTCHAR quotedblleft
ENCODING 8220
SWIDTH 400 0
DWIDTH 5 0
BBX 3 4 1 6
BITMAP
A0
A0
A0
A0
ENDCHAR
STARTCHAR quotedblright
ENCODING 8221
SWIDTH 397 0
DWIDTH 5 0
BBX 4 3 1 7
BITMAP
B0
B0
A0
ENDCHAR
STARTCHAR quotedblbase
ENCODING 8222
SWIDTH 404 0
DWIDTH 5 0
BBX 3 4 1 -2
BITMAP
A0
A0
A0
20
ENDCHAR
STARTCHAR dagger
ENCODING 8224
SWIDTH 487 0
DWIDTH 6 0
BBX 6 11 0 -1
BITMAP
10
10
10
FC
10
10
10
10
10
10
10
ENDCHAR
STARTCHAR daggerdbl
ENCODING 8225
SWIDTH 541 0
DWIDTH 7 0
BBX 5 11 1 -1
BITMAP
20
20
20
F8
20
20
20
F8
20
20
20
ENDCHAR
STARTCHAR bullet
ENCODING 8226
SWIDTH 392 0
DWIDTH 5 0
BBX 3 3 1 3
BITMAP
E0
E0
E0
ENDCHAR
STARTCHAR ellipsis
ENCODING 8230
SWIDTH 621 0
DWIDTH 8 0
BBX 6 2 1 0
BITMAP
B4
B4
ENDCHAR
STARTCHAR perthousand
ENCODING 8240
SWIDTH 1053 0
DWIDTH 14 0
BBX 13 10 0 0
BITMAP
7100
9300
9200
9600
7400
0DB8
0A48
0A48
1248
13F8
ENDCHAR
STARTCHAR guilsinglleft
ENCODING 8249
SWIDTH 292 0
DWIDTH 4 0
BBX 2 5 1 1
BITMAP
C0
80
80
80
40
ENDCHAR
STARTCHAR guilsinglright
ENCODING 8250
SWIDTH 292 0
DWIDTH 4 0
BBX 2 5 1 1
BITMAP
80
40
40
C0
80
ENDCHAR
STARTCHAR fraction
ENCODING 8260
SWIDTH 170 0
DWIDTH 2 0
BBX 6 10 -2 0
BITMAP
04
08
08
10
10
20
20
40
40
80
ENDCHAR
STARTCHAR uni2070
ENCODING 8304
SWIDTH 432 0
DWIDTH 6 0
BBX 5 5 0 6
BITMAP
78
48
C8
48
78
ENDCHAR
STARTCHAR uni2074
ENCODING 8308
SWIDTH 417 0
DWIDTH 5 0
BBX 5 5 0 6
BITMAP
10
30
50
F8
10
ENDCHAR
STARTCHAR uni2075
ENCODING 8309
SWIDTH 409 0
DWIDTH 5 0
BBX 4 5 1 6
BITMAP
F0
80
F0
10
F0
ENDCHAR
STARTCHAR uni2076
ENCODING 8310
SWIDTH 415 0
DWIDTH 5 0
BBX 5 5 0 6
BITMAP
78
48
F8
C8
78
ENDCHAR
STARTCHAR uni2077
ENCODING 8311
SWIDTH 372 0
DWIDTH 5 0
BBX 5 5 0 6
BITMAP
F8
10
10
20
60
ENDCHAR
STARTCHAR uni2078
ENCODING 8312
SWIDTH 418 0
DWIDTH 5 0
BBX 5 5 0 6
BITMAP
78
48
70
C8
78
ENDCHAR
STARTCHAR uni2079
ENCODING 8313
SWIDTH 418 0
DWIDTH 5 0
BBX 5 5 0 6
BITMAP
78
C8
78
C8
70
ENDCHAR
STARTCHAR uni2080
ENCODING 8320
SWIDTH 432 0
DWIDTH 6 0
BBX 5 6 0 -2
BITMAP
78
48
C8
C8
48
78
ENDCHAR
STARTCHAR uni2081
ENCODING 8321
SWIDTH 276 0
DWIDTH 4 0
BBX 3 5 0 -1
BITMAP
60
A0
20
20
20
ENDCHAR
STARTCHAR uni2082
ENCODING 8322
SWIDTH 412 0
DWIDTH 5 0
BBX 5 5 0 -1
BITMAP
78
48
38
C0
F8
ENDCHAR
STARTCHAR uni2083
ENCODING 8323
SWIDTH 412 0
DWIDTH 5 0
BBX 5 6 0 -2
BITMAP
78
C8
30
08
C8
78
ENDCHAR
STARTCHAR uni2084
ENCODING 8324
SWIDTH 417 0
DWIDTH 5 0
BBX 5 5 0 -1
BITMAP
10
30
50
F8
10
ENDCHAR
STARTCHAR uni2085
ENCODING 8325
SWIDTH 409 0
DWIDTH 5 0
BBX 5 6 0 -2
BITMAP
78
40
78
48
C8
78
ENDCHAR
STARTCHAR uni2086
ENCODING 8326
SWIDTH 415 0
DWIDTH 5 0
BBX 5 6 0 -2
BITMAP
78
48
F8
C8
48
78
ENDCHAR
STARTCHAR uni2087
ENCODING 8327
SWIDTH 372 0
DWIDTH 5 0
BBX 5 5 0 -1
BITMAP
F8
10
10
20
60
ENDCHAR
STARTCHAR uni2088
ENCODING 8328
SWIDTH 418 0
DWIDTH 5 0
BBX 5 6 0 -2
BITMAP
78
48
70
C8
C8
78
ENDCHAR
STARTCHAR uni2089
ENCODING 8329
SWIDTH 418 0
DWIDTH 5 0
BBX 5 6 0 -2
BITMAP
78
C8
C8
78
C8
70
ENDCHAR
STARTCHAR Euro
ENCODING 8364
SWIDTH 811 0
DWIDTH 11 0
BBX 9 10 1 0
BITMAP
3F00
6180
4080
FC00
4000
4000
FC00
4080
6180
3F00
ENDCHAR
STARTCHAR uni20B9
ENCODING 8377
SWIDTH 723 0
DWIDTH 9 0
BBX 8 10 1 0
BITMAP
FF
04
FF
06
04
FC
06
06
06
06
ENDCHAR
STARTCHAR uni20BA
ENCODING 8378
SWIDTH 698 0
DWIDTH 9 0
BBX 8 10 1 0
BITMAP
40
40
48
70
C8
78
E3
C3
46
7C
ENDCHAR
STARTCHAR uni20BD
ENCODING 8381
SWIDTH 786 0
DWIDTH 10 0
BBX 9 10 1 0
BITMAP
7F00
4100
4180
4180
4100
FF00
4000
FC00
4000
4000
ENDCHAR
STARTCHAR uni20BF
ENCODING 8383
SWIDTH 734 0
DWIDTH 10 0
BBX 8 14 1 -2
BITMAP
28
28
FE
83
83
83
FC
83
81
81
83
FE
28
28
ENDCHAR
STARTCHAR trademark
ENCODING 8482
SWIDTH 990 0
DWIDTH 13 0
BBX 12 5 0 5
BITMAP
FE30
2530
2550
2550
24D0
ENDCHAR
STARTCHAR oneeighth
ENCODING 8539
SWIDTH 843 0
DWIDTH 11 0
BBX 10 10 0 0
BITMAP
6200
E200
2600
2400
2FC0
0A40
1A40
11C0
3240
23C0
ENDCHAR
STARTCHAR threeeighths
ENCODING 8540
SWIDTH 957 0
DWIDTH 12 0
BBX 12 10 0 0
BITMAP
7880
4980
3100
0B00
CAF0
7E90
0490
0CE0
0990
18F0
ENDCHAR
STARTCHAR fiveeighths
ENCODING 8541
SWIDTH 951 0
DWIDTH 12 0
BBX 12 10 0 0
BITMAP
7880
4100
7900
0B00
CAE0
7F90
0590
0CE0
0910
18F0
ENDCHAR
STARTCHAR seveneighths
ENCODING 8542
SWIDTH 846 0
DWIDTH 11 0
BBX 11 10 0 0
BITMAP
FB00
1200
1600
2400
6FC0
0A40
1A40
11C0
3260
23C0
ENDCHAR
STARTCHAR arrowleft
ENCODING 8592
SWIDTH 808 0
DWIDTH 11 0
BBX 9 7 1 1
BITMAP
3000
6000
C000
FF80
4000
2000
1000
ENDCHAR
STARTCHAR arrowup
ENCODING 8593
SWIDTH 623 0
DWIDTH 8 0
BBX 7 10 1 0
BITMAP
10
30
78
B4
B2
30
30
30
30
30
ENDCHAR
STARTCHAR arrowright
ENCODING 8594
SWIDTH 808 0
DWIDTH 11 0
BBX 9 7 1 1
BITMAP
0C00
0600
0300
FF80
0300
0600
0C00
ENDCHAR
STARTCHAR arrowdown
ENCODING 8595
SWIDTH 625 0
DWIDTH 8 0
BBX 7 10 1 0
BITMAP
30
30
30
30
30
B2
B4
78
30
10
ENDCHAR
STARTCHAR uni2196
ENCODING 8598
SWIDTH 641 0
DWIDTH 8 0
BBX 7 7 1 3
BITMAP
F8
C0
E0
B0
98
8C
06
ENDCHAR
STARTCHAR uni2197
ENCODING 8599
SWIDTH 641 0
DWIDTH 8 0
BBX 7 7 1 3
BITMAP
7E
0E
1E
36
66
C4
80
ENDCHAR
STARTCHAR uni2198
ENCODING 8600
SWIDTH 629 0
DWIDTH 8 0
BBX 7 7 1 0
BITMAP
80
C4
66
36
1E
0E
7E
ENDCHAR
STARTCHAR uni2199
ENCODING 8601
SWIDTH 629 0
DWIDTH 8 0
BBX 7 7 1 0
BITMAP
06
8C
98
B0
E0
C0
F8
ENDCHAR
STARTCHAR partialdiff
ENCODING 8706
SWIDTH 617 0
DWIDTH 8 0
BBX 6 10 1 0
BITMAP
70
0C
04
FC
CC
84
84
84
8C
78
ENDCHAR
STARTCHAR uni2206
ENCODING 8710
SWIDTH 791 0
DWIDTH 10 0
BBX 10 10 0 0
BITMAP
0C00
0E00
1A00
1300
3100
2100
6080
4080
C0C0
FFC0
ENDCHAR
STARTCHAR product
ENCODING 8719
SWIDTH 790 0
DWIDTH 10 0
BBX 10 13 0 -3
BITMAP
FFC0
6180
6180
6180
6180
6180
6180
6180
6180
6180
6180
6180
6180
ENDCHAR
STARTCHAR summation
ENCODING 8721
SWIDTH 626 0
DWIDTH 8 0
BBX 8 13 0 -3
BITMAP
7F
40
20
30
18
0C
0C
08
18
30
60
40
FF
ENDCHAR
STARTCHAR minus
ENCODING 8722
SWIDTH 597 0
DWIDTH 8 0
BBX 6 1 1 4
BITMAP
FC
ENDCHAR
STARTCHAR radical
ENCODING 8730
SWIDTH 699 0
DWIDTH 9 0
BBX 8 11 0 -1
BITMAP
01
01
01
03
02
02
E6
24
34
14
1C
ENDCHAR
STARTCHAR infinity
ENCODING 8734
SWIDTH 801 0
DWIDTH 10 0
BBX 9 4 1 2
BITMAP
E700
9880
9980
E700
ENDCHAR
STARTCHAR integral
ENCODING 8747
SWIDTH 317 0
DWIDTH 4 0
BBX 4 13 0 -3
BITMAP
30
60
60
60
60
60
60
60
60
60
60
60
C0
ENDCHAR
STARTCHAR approxequal
ENCODING 8776
SWIDTH 597 0
DWIDTH 8 0
BBX 6 5 1 2
BITMAP
E4
BC
00
E4
BC
ENDCHAR
STARTCHAR notequal
ENCODING 8800
SWIDTH 597 0
DWIDTH 8 0
BBX 6 8 1 0
BITMAP
08
08
FC
10
20
FC
40
40
ENDCHAR
STARTCHAR lessequal
ENCODING 8804
SWIDTH 597 0
DWIDTH 8 0
BBX 6 8 1 0
BITMAP
0C
38
E0
C0
38
0C
00
FC
ENDCHAR
STARTCHAR greaterequal
ENCODING 8805
SWIDTH 597 0
DWIDTH 8 0
BBX 6 8 1 0
BITMAP
80
70
1C
0C
70
C0
00
FC
ENDCHAR
STARTCHAR lozenge
ENCODING 9674
SWIDTH 687 0
DWIDTH 9 0
BBX 7 10 1 0
BITMAP
10
28
6C
44
82
82
44
6C
28
10
ENDCHAR
STARTCHAR fi
ENCODING 64257
SWIDTH 563 0
DWIDTH 7 0
BBX 6 10 0 0
BITMAP
34
64
60
F4
64
64
64
64
64
64
ENDCHAR
STARTCHAR fl
ENCODING 64258
SWIDTH 563 0
DWIDTH 7 0
BBX 6 10 0 0
BITMAP
34
64
64
F4
64
64
64
64
64
64
ENDCHAR
STARTCHAR .notdef
ENCODING -1
SWIDTH 696 0
DWIDTH 9 0
BBX 7 10 1 0
BITMAP
FE
C6
C6
AA
9A
9A
AA
C6
C6
FE
ENDCHAR
STARTCHAR uni004A0301
ENCODING -1
SWIDTH 643 0
DWIDTH 8 0
BBX 9 13 0 0
BITMAP
0180
0300
0000
0200
0200
0200
0200
0200
0200
C200
C200
4200
7C00
ENDCHAR
STARTCHAR i.loclTRK
ENCODING -1
SWIDTH 228 0
DWIDTH 3 0
BBX 1 10 1 0
BITMAP
80
80
00
80
80
80
80
80
80
80
ENDCHAR
STARTCHAR uni006A0301
ENCODING -1
SWIDTH 228 0
DWIDTH 3 0
BBX 3 13 0 -3
BITMAP
20
40
00
40
40
40
40
40
40
40
40
40
C0
ENDCHAR
STARTCHAR a.ss01
ENCODING -1
SWIDTH 582 0
DWIDTH 8 0
BBX 6 7 1 0
BITMAP
F8
8C
04
F4
8C
8C
F4
ENDCHAR
STARTCHAR aacute.ss01
ENCODING -1
SWIDTH 582 0
DWIDTH 8 0
BBX 6 10 1 0
BITMAP
10
30
00
F8
8C
04
F4
8C
8C
F4
ENDCHAR
STARTCHAR abreve.ss01
ENCODING -1
SWIDTH 582 0
DWIDTH 8 0
BBX 6 10 1 0
BITMAP
48
70
00
F8
8C
04
F4
8C
8C
F4
ENDCHAR
STARTCHAR acircumflex.ss01
ENCODING -1
SWIDTH 582 0
DWIDTH 8 0
BBX 6 10 1 0
BITMAP
30
58
00
F8
8C
04
F4
8C
8C
F4
ENDCHAR
STARTCHAR adieresis.ss01
ENCODING -1
SWIDTH 582 0
DWIDTH 8 0
BBX 6 10 1 0
BITMAP
58
58
00
F8
8C
04
F4
8C
8C
F4
ENDCHAR
STARTCHAR uni0227.ss01
ENCODING -1
SWIDTH 582 0
DWIDTH 8 0
BBX 6 10 1 0
BITMAP
20
20
00
F8
8C
04
F4
8C
8C
F4
ENDCHAR
STARTCHAR uni1EA1.ss01
ENCODING -1
SWIDTH 582 0
DWIDTH 8 0
BBX 6 10 1 -3
BITMAP
F8
8C
04
F4
8C
8C
F4
00
20
20
ENDCHAR
STARTCHAR agrave.ss01
ENCODING -1
SWIDTH 582 0
DWIDTH 8 0
BBX 6 10 1 0
BITMAP
40
20
00
F8
8C
04
F4
8C
8C
F4
ENDCHAR
STARTCHAR amacron.ss01
ENCODING -1
SWIDTH 582 0
DWIDTH 8 0
BBX 6 9 1 0
BITMAP
70
00
F8
8C
04
F4
8C
8C
F4
ENDCHAR
STARTCHAR aogonek.ss01
ENCODING -1
SWIDTH 582 0
DWIDTH 8 0
BBX 6 10 1 -3
BITMAP
F8
8C
04
F4
8C
8C
F4
08
08
0C
ENDCHAR
STARTCHAR aring.ss01
ENCODING -1
SWIDTH 582 0
DWIDTH 8 0
BBX 6 10 1 0
BITMAP
70
70
00
F8
8C
04
F4
8C
8C
F4
ENDCHAR
STARTCHAR aringacute.ss01
ENCODING -1
SWIDTH 582 0
DWIDTH 8 0
BBX 6 13 1 0
BITMAP
18
30
00
70
70
00
F8
8C
04
F4
8C
8C
F4
ENDCHAR
STARTCHAR atilde.ss01
ENCODING -1
SWIDTH 582 0
DWIDTH 8 0
BBX 6 10 1 0
BITMAP
28
70
00
F8
8C
04
F4
8C
8C
F4
ENDCHAR
STARTCHAR f.ss01
ENCODING -1
SWIDTH 335 0
DWIDTH 4 0
BBX 4 10 0 0
BITMAP
30
60
60
F0
60
60
60
60
60
60
ENDCHAR
STARTCHAR j.ss01
ENCODING -1
SWIDTH 228 0
DWIDTH 3 0
BBX 2 13 0 -3
BITMAP
40
40
00
40
40
40
40
40
40
40
40
40
C0
ENDCHAR
STARTCHAR uni0237.ss01
ENCODING -1
SWIDTH 228 0
DWIDTH 3 0
BBX 2 10 0 -3
BITMAP
40
40
40
40
40
40
40
40
40
C0
ENDCHAR
STARTCHAR uni006A0301.ss01
ENCODING -1
SWIDTH 228 0
DWIDTH 3 0
BBX 3 13 0 -3
BITMAP
20
40
00
40
40
40
40
40
40
40
40
40
C0
ENDCHAR
STARTCHAR jcircumflex.ss01
ENCODING -1
SWIDTH 228 0
DWIDTH 3 0
BBX 3 13 0 -3
BITMAP
C0
A0
00
40
40
40
40
40
40
40
40
40
C0
ENDCHAR
STARTCHAR r.ss01
ENCODING -1
SWIDTH 494 0
DWIDTH 6 0
BBX 5 7 1 0
BITMAP
F8
88
88
80
80
80
80
ENDCHAR
STARTCHAR racute.ss01
ENCODING -1
SWIDTH 494 0
DWIDTH 6 0
BBX 5 10 1 0
BITMAP
10
20
00
F8
88
88
80
80
80
80
ENDCHAR
STARTCHAR rcaron.ss01
ENCODING -1
SWIDTH 494 0
DWIDTH 6 0
BBX 5 10 1 0
BITMAP
50
30
00
F8
88
88
80
80
80
80
ENDCHAR
STARTCHAR uni0157.ss01
ENCODING -1
SWIDTH 494 0
DWIDTH 6 0
BBX 5 10 1 -3
BITMAP
F8
88
88
80
80
80
80
00
80
80
ENDCHAR
STARTCHAR t.ss01
ENCODING -1
SWIDTH 475 0
DWIDTH 6 0
BBX 6 9 0 0
BITMAP
40
40
FC
40
40
40
44
64
38
ENDCHAR
STARTCHAR tbar.ss01
ENCODING -1
SWIDTH 488 0
DWIDTH 6 0
BBX 6 9 0 0
BITMAP
60
60
FC
60
70
60
64
64
38
ENDCHAR
STARTCHAR tcaron.ss01
ENCODING -1
SWIDTH 475 0
DWIDTH 6 0
BBX 6 11 0 0
BITMAP
10
10
50
40
FC
40
40
40
44
64
38
ENDCHAR
STARTCHAR uni0163.ss01
ENCODING -1
SWIDTH 475 0
DWIDTH 6 0
BBX 6 12 0 -3
BITMAP
40
40
FC
40
40
40
44
64
38
18
28
38
ENDCHAR
STARTCHAR uni021B.ss01
ENCODING -1
SWIDTH 475 0
DWIDTH 6 0
BBX 6 12 0 -3
BITMAP
40
40
FC
40
40
40
44
64
38
00
10
10
ENDCHAR
STARTCHAR y.ss01
ENCODING -1
SWIDTH 546 0
DWIDTH 7 0
BBX 7 10 0 -3
BITMAP
C6
44
44
6C
28
28
18
10
30
60
ENDCHAR
STARTCHAR yacute.ss01
ENCODING -1
SWIDTH 546 0
DWIDTH 7 0
BBX 7 13 0 -3
BITMAP
08
10
00
C6
44
44
6C
28
28
18
10
30
60
ENDCHAR
STARTCHAR ycircumflex.ss01
ENCODING -1
SWIDTH 546 0
DWIDTH 7 0
BBX 7 13 0 -3
BITMAP
18
28
00
C6
44
44
6C
28
28
18
10
30
60
ENDCHAR
STARTCHAR ydieresis.ss01
ENCODING -1
SWIDTH 546 0
DWIDTH 7 0
BBX 7 13 0 -3
BITMAP
28
28
00
C6
44
44
6C
28
28
18
10
30
60
ENDCHAR
STARTCHAR ygrave.ss01
ENCODING -1
SWIDTH 546 0
DWIDTH 7 0
BBX 7 13 0 -3
BITMAP
20
10
00
C6
44
44
6C
28
28
18
10
30
60
ENDCHAR
STARTCHAR uni0233.ss01
ENCODING -1
SWIDTH 546 0
DWIDTH 7 0
BBX 7 12 0 -3
BITMAP
38
00
C6
44
44
6C
28
28
18
10
30
60
ENDCHAR
STARTCHAR uni1EF9.ss01
ENCODING -1
SWIDTH 546 0
DWIDTH 7 0
BBX 7 13 0 -3
BITMAP
20
38
00
C6
44
44
6C
28
28
18
10
30
60
ENDCHAR
STARTCHAR fi.ss01
ENCODING -1
SWIDTH 563 0
DWIDTH 7 0
BBX 6 10 0 0
BITMAP
34
64
60
F4
64
64
64
64
64
64
ENDCHAR
STARTCHAR fl.ss01
ENCODING -1
SWIDTH 563 0
DWIDTH 7 0
BBX 6 10 0 0
BITMAP
34
64
64
F4
64
64
64
64
64
64
ENDCHAR
STARTCHAR ordfeminine.ss01
ENCODING -1
SWIDTH 490 0
DWIDTH 6 0
BBX 5 6 1 4
BITMAP
F0
90
E8
98
98
E8
ENDCHAR
STARTCHAR zero.tf
ENCODING -1
SWIDTH 722 0
DWIDTH 9 0
BBX 8 10 1 0
BITMAP
7C
C6
83
83
83
83
83
83
C2
7C
ENDCHAR
STARTCHAR one.tf
ENCODING -1
SWIDTH 722 0
DWIDTH 9 0
BBX 8 10 1 0
BITMAP
18
28
C8
88
08
08
08
08
08
FF
ENDCHAR
STARTCHAR two.tf
ENCODING -1
SWIDTH 722 0
DWIDTH 9 0
BBX 8 10 1 0
BITMAP
7E
C2
83
03
06
7E
C0
80
80
FF
ENDCHAR
STARTCHAR three.tf
ENCODING -1
SWIDTH 722 0
DWIDTH 9 0
BBX 8 10 1 0
BITMAP
7E
C2
83
02
1C
02
03
83
C2
7E
ENDCHAR
STARTCHAR four.tf
ENCODING -1
SWIDTH 722 0
DWIDTH 9 0
BBX 8 10 1 0
BITMAP
0E
0E
16
26
66
C6
86
FF
06
06
ENDCHAR
STARTCHAR five.tf
ENCODING -1
SWIDTH 722 0
DWIDTH 9 0
BBX 8 10 1 0
BITMAP
FE
80
80
80
FE
03
03
83
C2
7E
ENDCHAR
STARTCHAR six.tf
ENCODING -1
SWIDTH 722 0
DWIDTH 9 0
BBX 8 10 1 0
BITMAP
7E
C2
83
80
BE
C3
83
83
C2
7E
ENDCHAR
STARTCHAR seven.tf
ENCODING -1
SWIDTH 722 0
DWIDTH 9 0
BBX 8 10 1 0
BITMAP
FF
02
06
04
0C
08
18
10
30
60
ENDCHAR
STARTCHAR eight.tf
ENCODING -1
SWIDTH 722 0
DWIDTH 9 0
BBX 8 10 1 0
BITMAP
7E
C2
83
82
7C
C2
83
83
C2
7E
ENDCHAR
STARTCHAR nine.tf
ENCODING -1
SWIDTH 722 0
DWIDTH 9 0
BBX 8 10 1 0
BITMAP
7C
C2
82
83
C3
7F
03
82
C6
7C
ENDCHAR
STARTCHAR zero.dnom
ENCODING -1
SWIDTH 432 0
DWIDTH 6 0
BBX 5 5 0 0
BITMAP
78
48
C8
48
78
ENDCHAR
STARTCHAR one.dnom
ENCODING -1
SWIDTH 276 0
DWIDTH 4 0
BBX 3 5 0 0
BITMAP
60
A0
20
20
20
ENDCHAR
STARTCHAR two.dnom
ENCODING -1
SWIDTH 412 0
DWIDTH 5 0
BBX 5 5 0 0
BITMAP
78
48
38
C0
F8
ENDCHAR
STARTCHAR three.dnom
ENCODING -1
SWIDTH 412 0
DWIDTH 5 0
BBX 5 5 0 0
BITMAP
78
C8
30
88
78
ENDCHAR
STARTCHAR four.dnom
ENCODING -1
SWIDTH 417 0
DWIDTH 5 0
BBX 5 5 0 0
BITMAP
10
30
50
F8
10
ENDCHAR
STARTCHAR five.dnom
ENCODING -1
SWIDTH 409 0
DWIDTH 5 0
BBX 4 5 1 0
BITMAP
F0
80
F0
10
F0
ENDCHAR
STARTCHAR six.dnom
ENCODING -1
SWIDTH 415 0
DWIDTH 5 0
BBX 5 5 0 0
BITMAP
78
48
F8
C8
78
ENDCHAR
STARTCHAR seven.dnom
ENCODING -1
SWIDTH 372 0
DWIDTH 5 0
BBX 5 5 0 0
BITMAP
F8
10
30
20
40
ENDCHAR
STARTCHAR eight.dnom
ENCODING -1
SWIDTH 418 0
DWIDTH 5 0
BBX 5 5 0 0
BITMAP
78
48
70
C8
78
ENDCHAR
STARTCHAR nine.dnom
ENCODING -1
SWIDTH 418 0
DWIDTH 5 0
BBX 5 5 0 0
BITMAP
78
C8
78
C8
70
ENDCHAR
STARTCHAR zero.numr
ENCODING -1
SWIDTH 432 0
DWIDTH 6 0
BBX 5 6 0 4
BITMAP
78
48
C8
C8
48
78
ENDCHAR
STARTCHAR one.numr
ENCODING -1
SWIDTH 276 0
DWIDTH 4 0
BBX 3 5 0 5
BITMAP
60
A0
20
20
20
ENDCHAR
STARTCHAR two.numr
ENCODING -1
SWIDTH 412 0
DWIDTH 5 0
BBX 5 6 0 4
BITMAP
78
48
18
70
C0
F8
ENDCHAR
STARTCHAR three.numr
ENCODING -1
SWIDTH 412 0
DWIDTH 5 0
BBX 5 6 0 4
BITMAP
78
C8
30
08
C8
78
ENDCHAR
STARTCHAR four.numr
ENCODING -1
SWIDTH 417 0
DWIDTH 5 0
BBX 5 5 0 5
BITMAP
10
30
50
F8
10
ENDCHAR
STARTCHAR five.numr
ENCODING -1
SWIDTH 409 0
DWIDTH 5 0
BBX 5 6 0 4
BITMAP
78
40
78
08
C8
78
ENDCHAR
STARTCHAR six.numr
ENCODING -1
SWIDTH 415 0
DWIDTH 5 0
BBX 5 6 0 4
BITMAP
78
48
F8
C8
48
78
ENDCHAR
STARTCHAR seven.numr
ENCODING -1
SWIDTH 372 0
DWIDTH 5 0
BBX 5 5 0 5
BITMAP
F8
10
30
20
60
ENDCHAR
STARTCHAR eight.numr
ENCODING -1
SWIDTH 418 0
DWIDTH 5 0
BBX 5 6 0 4
BITMAP
78
48
70
C8
C8
78
ENDCHAR
STARTCHAR nine.numr
ENCODING -1
SWIDTH 418 0
DWIDTH 5 0
BBX 5 6 0 4
BITMAP
78
C8
C8
78
C8
70
ENDCHAR
STARTCHAR uni030C.alt
ENCODING -1
SWIDTH 0 0
DWIDTH 0 0
BBX 1 3 1 7
BITMAP
80
80
80
ENDCHAR
STARTCHAR caron.alt
ENCODING -1
SWIDTH 194 0
DWIDTH 3 0
BBX 1 3 1 7
BITMAP
80
80
80
ENDCHAR
STARTCHAR ringacutecomb
ENCODING -1
SWIDTH 337 0
DWIDTH 4 0
BBX 3 5 1 7
BITMAP
40
40
C0
A0
C0
ENDCHAR
ENDFONT
